<svg width="24" height="24" viewBox="0 0 24 24" fill="none" xmlns="http://www.w3.org/2000/svg">
<path d="M13.2128 7.45715C13.2128 7.93054 12.8291 8.31429 12.3557 8.31429C11.8823 8.31429 11.4985 7.93054 11.4985 7.45715C11.4985 6.98376 11.8823 6.60001 12.3557 6.60001C12.8291 6.60001 13.2128 6.98376 13.2128 7.45715Z" stroke="#718DD6" stroke-width="6"/>
<mask id="mask0_2:39" style="mask-type:alpha" maskUnits="userSpaceOnUse" x="0" y="5" width="24" height="15">
<rect x="-3.05176e-05" y="5.45001" width="24" height="14.1" fill="#C4C4C4"/>
</mask>
<g mask="url(#mask0_2:39)">
<path d="M17.8181 20.825C17.8181 23.6002 17.1571 26.0555 16.1057 27.7827C15.0514 29.5148 13.6921 30.4 12.2727 30.4C10.8533 30.4 9.49399 29.5148 8.43967 27.7827C7.38831 26.0555 6.72723 23.6002 6.72723 20.825C6.72723 18.0605 7.42282 15.6054 8.49465 13.8737C9.57601 12.1266 10.9392 11.25 12.2727 11.25C13.6062 11.25 14.9694 12.1266 16.0507 13.8737C17.1226 15.6054 17.8181 18.0605 17.8181 20.825Z" stroke="#718DD6" stroke-width="2"/>
</g>
<rect x="2.36359" y="1.00003" width="19.8182" height="22" rx="3" stroke="#718DD6" stroke-width="2"/>
</svg>
