<svg width="24" height="24" viewBox="0 0 24 24" fill="none" xmlns="http://www.w3.org/2000/svg">
    <mask id="path-1-inside-1_2:31" fill="none">
        <ellipse cx="12.3557" cy="7.45715" rx="3.85714" ry="3.85714"/>
    </mask>
    <path d="M10.2128 7.45715C10.2128 6.27368 11.1722 5.31429 12.3557 5.31429V17.3143C17.7996 17.3143 22.2128 12.9011 22.2128 7.45715H10.2128ZM12.3557 5.31429C13.5391 5.31429 14.4985 6.27368 14.4985 7.45715H2.49854C2.49854 12.9011 6.91173 17.3143 12.3557 17.3143V5.31429ZM14.4985 7.45715C14.4985 8.64062 13.5391 9.60001 12.3557 9.60001V-2.39999C6.91173 -2.39999 2.49854 2.0132 2.49854 7.45715H14.4985ZM12.3557 9.60001C11.1722 9.60001 10.2128 8.64062 10.2128 7.45715H22.2128C22.2128 2.0132 17.7996 -2.39999 12.3557 -2.39999V9.60001Z"
          fill="#31313D" mask="url(#path-1-inside-1_2:31)"/>
    <mask id="mask0_2:31" style="mask-type:alpha" maskUnits="userSpaceOnUse" x="0" y="5" width="24" height="15">
        <rect x="-3.05176e-05" y="5.45001" width="24" height="14.1" fill="#C4C4C4"/>
    </mask>
    <g mask="url(#mask0_2:31)">
        <path d="M17.8181 20.825C17.8181 23.6002 17.1571 26.0555 16.1057 27.7827C15.0514 29.5148 13.6921 30.4 12.2727 30.4C10.8533 30.4 9.49399 29.5148 8.43967 27.7827C7.38831 26.0555 6.72723 23.6002 6.72723 20.825C6.72723 18.0605 7.42282 15.6054 8.49465 13.8737C9.57601 12.1266 10.9392 11.25 12.2727 11.25C13.6062 11.25 14.9694 12.1266 16.0507 13.8737C17.1226 15.6054 17.8181 18.0605 17.8181 20.825Z"
              stroke="#31313D" stroke-width="2"/>
    </g>
    <rect x="2.36359" y="1.00003" width="19.8182" height="22" rx="3" stroke="#31313D" stroke-width="2"/>
</svg>
