<svg width="490" height="540" viewBox="0 0 490 540" fill="none" xmlns="http://www.w3.org/2000/svg">
<path d="M0.200093 269.585C0.200093 209.653 0.200093 149.724 0.200093 89.7983C0.177786 78.0359 2.46938 66.3844 6.94388 55.5097C11.4184 44.6351 17.9881 34.7506 26.2774 26.4212C34.5667 18.0919 44.4132 11.4809 55.254 6.96627C66.0947 2.45163 77.7173 0.121825 89.4572 0.110017C193.031 0.0499977 296.606 0.0499977 400.18 0.110017C443.57 0.110017 481.48 32.6803 488.039 75.6638C488.764 80.4411 489.128 85.2663 489.127 90.0984C489.187 209.789 489.187 329.494 489.127 449.212C489.15 470.794 481.411 491.662 467.327 507.993C453.242 524.323 433.757 535.022 412.44 538.13C408.324 538.728 404.17 539.028 400.01 539.03C296.436 539.077 192.862 539.077 89.2875 539.03C45.3079 539.03 7.33867 506.02 1.11863 462.366C0.501304 457.995 0.191036 453.586 0.190115 449.172C0.163491 389.273 0.166813 329.411 0.200093 269.585ZM391.354 494.436C396.506 494.116 402.147 494.346 407.548 493.336C429.623 489.194 444.409 471.049 444.419 448.561C444.419 409.136 444.419 369.71 444.419 330.284C444.419 250.512 444.419 170.744 444.419 90.9787C444.419 81.9058 442.422 73.4331 437.43 65.8508C428.275 51.9264 415.286 44.8941 398.602 44.8941H91.0946C90.4257 44.8941 89.7667 44.8941 89.0978 44.8941C83.2178 44.962 77.4087 46.1899 72.0024 48.5077C66.5961 50.8254 61.6985 54.1876 57.5894 58.4021C53.4803 62.6166 50.2401 67.601 48.054 73.0704C45.8679 78.5398 44.7787 84.3872 44.8486 90.2785C44.8486 209.809 44.8686 329.341 44.9085 448.872C44.9085 466.807 53.2851 480.241 68.9201 488.974C78.2052 494.166 88.319 494.696 98.6924 493.976C98.4428 487.204 98.0734 480.632 97.9936 474.059C97.5143 438.368 101.488 403.237 111.252 368.836C119.429 340.037 131.121 312.819 148.523 288.351C161.292 270.345 176.478 254.9 195.697 243.777C197.255 242.877 198.832 241.996 200.609 240.986C178.395 226.121 164.667 205.975 161.003 179.597C157.339 153.218 164.527 129.941 181.969 109.885C212.69 74.5835 267.832 70.9924 303.125 102.092C321.096 117.917 331.39 137.893 332.628 161.821C334.415 196.492 319.589 222.98 290.825 242.096C291.444 242.506 291.823 242.807 292.263 243.097C309.675 252.85 323.832 266.294 335.973 281.989C352.436 303.276 364.168 327.083 372.854 352.451C386.132 391.223 391.624 431.226 391.274 472.119C391.304 479.311 391.354 486.543 391.354 494.436ZM143.271 494.006C144.659 494.086 145.268 494.156 145.957 494.156C211.745 494.156 277.533 494.173 343.321 494.206C345.318 494.206 345.817 493.456 345.927 491.635C347.754 460.375 346.136 429.365 339.447 398.706C333.766 372.618 324.98 347.61 311.142 324.672C302.017 309.578 291.174 295.973 276.478 285.87C256.051 271.866 235.244 271.496 214.447 284.87C203.954 291.622 195.408 300.435 187.95 310.338C171.855 331.705 161.512 355.842 154.244 381.41C147.231 406.368 143.426 432.121 142.922 458.044C142.652 469.938 143.141 481.852 143.271 494.006ZM246.496 119.328C233.839 119.327 221.696 124.343 212.718 133.281C203.739 142.219 198.654 154.352 198.573 167.033C198.573 193.831 219.699 215.558 245.917 215.598C273.063 215.598 294.599 194.441 294.629 167.643C294.668 161.294 293.451 155.001 291.047 149.127C288.644 143.253 285.101 137.915 280.625 133.422C276.149 128.929 270.827 125.37 264.969 122.95C259.111 120.531 252.832 119.3 246.496 119.328V119.328Z" fill="black"/>
</svg>
