<svg xmlns="http://www.w3.org/2000/svg" viewBox="0 0 235.91 285.45"><defs><style>.cls-1{fill:#fff;}</style></defs><title>loign</title><g id="Слой_2" data-name="Слой 2"><g id="Слой_1-2" data-name="Слой 1"><path class="cls-1" d="M.51,285.68V.23H236.42V285.68ZM146.82,125A62.07,62.07,0,0,0,171,98.23,60.88,60.88,0,0,0,176.28,63,60.23,60.23,0,0,0,161,30.48,61.67,61.67,0,0,0,72.84,27C60.63,38.58,54,52.88,53.57,69.74,53,93.1,63.13,111,82.25,124.33c-.57.4-.94.7-1.36.93-13.88,7.56-25,18.19-34.19,30.89-22,30.43-32.08,65.11-36.07,101.93-.25,2.26-.35,4.54-.53,6.91H41.48c1.32-8.36,2.34-16.59,4-24.69C49.24,221.23,55.15,202.84,65,186c7.73-13.18,17-25.1,30.79-32.63,11.86-6.46,23.75-6.47,35.66-.23,8.09,4.24,14.64,10.37,20.41,17.34,9.33,11.26,16,24,21.23,37.62a204.14,204.14,0,0,1,12.47,55.15c.12,1.35.51,1.92,1.92,1.92,9.5,0,19,0,28.49,0a9.41,9.41,0,0,0,1.38-.23,19.38,19.38,0,0,0,0-2.53c-1.31-9.54-2.25-19.15-4.06-28.59-4.52-23.58-12.39-46-24.93-66.6-10.28-16.88-22.93-31.47-40.41-41.31A11.21,11.21,0,0,1,146.82,125Z" transform="translate(-0.51 -0.23)"/><path d="M146.82,125a11.21,11.21,0,0,0,1.16.9c17.48,9.85,30.14,24.44,40.41,41.31,12.54,20.6,20.41,43,24.93,66.6,1.81,9.44,2.75,19.05,4.06,28.59a19.38,19.38,0,0,1,0,2.53,9.41,9.41,0,0,1-1.38.23c-9.5,0-19,0-28.49,0-1.41,0-1.8-.57-1.92-1.92a204.14,204.14,0,0,0-12.47-55.15c-5.23-13.58-11.91-26.36-21.23-37.62-5.77-7-12.32-13.1-20.41-17.34-11.9-6.24-23.8-6.24-35.66.23C82,160.89,72.77,172.8,65,186c-9.88,16.85-15.79,35.24-19.6,54.31-1.62,8.11-2.64,16.34-4,24.69H10.11c.18-2.36.29-4.64.53-6.91,4-36.82,14.11-71.49,36.07-101.93C55.87,143.45,67,132.82,80.9,125.26c.41-.23.78-.53,1.36-.93C63.13,111,53,93.1,53.57,69.74,54,52.88,60.63,38.58,72.84,27A61.67,61.67,0,0,1,161,30.48,60.23,60.23,0,0,1,176.28,63,60.88,60.88,0,0,1,171,98.23,62.07,62.07,0,0,1,146.82,125ZM115,37.59c-13.08.68-23.22,6.08-29.5,17.38-6.85,12.35-6.24,24.83,1.69,36.52,6.54,9.63,16.05,14.21,27.8,14.63Zm.54,68.6c13.73-.82,24.13-6.76,30.14-18.89,6.26-12.63,5.06-25.1-3.47-36.38-6.57-8.68-15.63-13-26.67-13.23Z" transform="translate(-0.51 -0.23)"/><path class="cls-1" d="M115,37.59v68.52c-11.75-.42-21.26-5-27.8-14.63C79.24,79.8,78.63,67.32,85.49,55,91.76,43.67,101.9,38.27,115,37.59Z" transform="translate(-0.51 -0.23)"/><path class="cls-1" d="M115.53,106.19V37.69c11,.26,20.1,4.54,26.67,13.23,8.54,11.28,9.73,23.76,3.47,36.38C139.66,99.43,129.26,105.36,115.53,106.19Z" transform="translate(-0.51 -0.23)"/></g></g></svg>