<svg width="31" height="29" viewBox="0 0 31 29" fill="none" xmlns="http://www.w3.org/2000/svg">
<path d="M0 0V7.24944H1.3118V28.4109H29.6882V7.24944H31V0H0ZM19.4699 12.5312H11.4955C10.9432 12.5657 10.4599 12.186 10.4254 11.6336C10.3909 11.0813 10.7706 10.6325 11.2884 10.5635C11.3229 10.5635 11.3575 10.5635 11.392 10.5635C11.4265 10.5635 11.461 10.5635 11.4955 10.5635H19.4699C19.7461 10.5635 19.9878 10.667 20.1604 10.8742C20.333 11.0468 20.4365 11.3229 20.4365 11.5646C20.4365 12.0824 19.9878 12.5312 19.4699 12.5312ZM29.0668 5.28174H1.93318V1.93318H29.0668V5.28174Z" fill="#31313D"/>
</svg>
