<svg width="33" height="28" viewBox="0 0 33 28" fill="none" xmlns="http://www.w3.org/2000/svg">
<path fill-rule="evenodd" clip-rule="evenodd" d="M0 27.5V0H8.25V27.5H0ZM1.7875 19.3449C1.7875 20.6786 2.84487 21.7649 4.13875 21.7649C5.445 21.7649 6.50238 20.6786 6.50238 19.3449C6.50238 17.9974 5.445 16.9111 4.13875 16.9111C2.84487 16.9125 1.7875 17.9974 1.7875 19.3449Z" fill="#525367"/>
<path fill-rule="evenodd" clip-rule="evenodd" d="M9.625 27.5V-1.52588e-05H17.875V27.5H9.625ZM11.4125 19.3449C11.4125 20.6786 12.4699 21.7649 13.7637 21.7649C15.07 21.7649 16.1274 20.6786 16.1274 19.3449C16.1274 17.9974 15.07 16.9111 13.7637 16.9111C12.4699 16.9125 11.4125 17.9974 11.4125 19.3449Z" fill="#525367"/>
<path fill-rule="evenodd" clip-rule="evenodd" d="M24.75 27.5L19.25 1.62386L27.5 -1.52588e-05L33 26.125L24.75 27.5ZM25.0443 20.4462C25.3468 21.7374 26.6681 22.5087 27.9744 22.165C29.2682 21.8212 30.0603 20.5425 29.7578 19.2912C29.4553 18.0537 28.1861 17.2824 26.906 17.5725C25.586 17.875 24.7404 19.1675 25.0443 20.4462Z" fill="#525367"/>
</svg>
