<?xml version="1.0" encoding="utf-8"?>
<!-- Generator: Adobe Illustrator 24.2.3, SVG Export Plug-In . SVG Version: 6.00 Build 0)  -->
<svg version="1.1" id="Layer_1" xmlns="http://www.w3.org/2000/svg" xmlns:xlink="http://www.w3.org/1999/xlink" x="0px" y="0px"
	 viewBox="0 0 24 24" style="enable-background:new 0 0 24 24;" xml:space="preserve">
<style type="text/css">
	.st0{fill:#787B8B;}
</style>
<path class="st0" d="M19,23H5c-1.7,0-3-1.3-3-3V6c0-1.7,1.3-3,3-3h14c1.7,0,3,1.3,3,3v14C22,21.7,20.7,23,19,23z M5,5
	C4.4,5,4,5.4,4,6v14c0,0.6,0.4,1,1,1h14c0.6,0,1-0.4,1-1V6c0-0.6-0.4-1-1-1H5z"/>
<rect x="15" y="1" class="st0" width="2" height="5"/>
<rect x="7" y="1" class="st0" width="2" height="5"/>
<rect x="3" y="9" class="st0" width="18" height="2"/>
</svg>
