<?xml version="1.0" encoding="utf-8"?>
<!-- Generator: Adobe Illustrator 24.2.3, SVG Export Plug-In . SVG Version: 6.00 Build 0)  -->
<svg version="1.1" id="Layer_1" xmlns="http://www.w3.org/2000/svg" xmlns:xlink="http://www.w3.org/1999/xlink" x="0px" y="0px"
	 viewBox="0 0 26 26" style="enable-background:new 0 0 26 26;" xml:space="preserve">
<style type="text/css">
	.st0{fill:#787B8B;}
</style>
<path class="st0" d="M26,21.3H9c-0.9,0-1.7-0.3-2.3-1c-0.6-0.6-1-1.4-1-2.3L5.8,1l2,0l-0.1,17c0,0.3,0.1,0.7,0.4,0.9
	c0.2,0.2,0.6,0.4,0.9,0.4h17V21.3z"/>
<path class="st0" d="M21.3,26h-2V9c0-0.3-0.1-0.7-0.4-0.9c-0.2-0.2-0.6-0.4-0.9-0.4L1,7.8l0-2l17-0.1c0.9,0,1.7,0.3,2.3,1
	c0.6,0.6,1,1.4,1,2.3V26z"/>
</svg>
