<svg width="32" height="32" viewBox="0 0 32 32" fill="none" xmlns="http://www.w3.org/2000/svg">
<path d="M17.9888 17.9887C19.0855 16.8921 19.0855 15.1078 17.9888 14.0112C16.8923 12.9145 15.108 12.9146 14.0113 14.0112C12.9148 15.1077 12.9148 16.892 14.0113 17.9887C15.108 19.0852 16.8923 19.0853 17.9888 17.9887ZM15.3372 15.337C15.7027 14.9716 16.2975 14.9714 16.663 15.337C17.0281 15.7021 17.0281 16.2979 16.663 16.6629C16.2975 17.0284 15.7028 17.0284 15.3372 16.6629C14.9717 16.2973 14.9717 15.7025 15.3372 15.337Z" fill="white"/>
<path d="M16 0C7.19006 0 0 7.19063 0 16C0 24.8099 7.19063 32 16 32C24.8099 32 32 24.8094 32 16C32 7.19006 24.8094 0 16 0ZM30.125 16C30.125 18.3209 29.5621 20.5126 28.5661 22.4464L22.0516 18.5376C23.0477 16.1536 22.5776 13.2968 20.6404 11.3596C18.7032 9.42244 15.8464 8.95231 13.4624 9.94844L9.55363 3.43394C11.4874 2.43788 13.6791 1.875 16 1.875C23.7886 1.875 30.125 8.21144 30.125 16ZM12.6854 12.6854C14.5131 10.8579 17.4869 10.8577 19.3146 12.6854C21.1422 14.5131 21.1422 17.4869 19.3146 19.3146C17.4869 21.1422 14.5131 21.1422 12.6854 19.3146C10.8578 17.4869 10.8578 14.5131 12.6854 12.6854ZM7.94781 4.40181L11.8542 10.9125C11.6836 11.0517 11.5185 11.2007 11.3596 11.3596C11.2006 11.5186 11.0516 11.6837 10.9124 11.8542L4.40181 7.94781C5.36394 6.56619 6.56619 5.36394 7.94781 4.40181ZM1.875 16C1.875 13.6791 2.43788 11.4874 3.43394 9.55363L9.94844 13.4624C8.95231 15.8464 9.42244 18.7032 11.3596 20.6404C13.2908 22.5716 16.1444 23.0515 18.5377 22.0516L22.4464 28.5661C20.5126 29.5621 18.3209 30.125 16 30.125C8.21144 30.125 1.875 23.7886 1.875 16ZM24.0522 27.5982L20.1458 21.0875C20.3164 20.9483 20.4815 20.7993 20.6404 20.6404C20.7992 20.4814 20.9483 20.3163 21.0875 20.1458L27.5982 24.0522C26.6361 25.4338 25.4338 26.6361 24.0522 27.5982Z" fill="white"/>
</svg>
