<?xml version="1.0" encoding="utf-8"?>
<!-- Generator: Adobe Illustrator 24.2.3, SVG Export Plug-In . SVG Version: 6.00 Build 0)  -->
<svg version="1.1" id="Layer_1" xmlns="http://www.w3.org/2000/svg" xmlns:xlink="http://www.w3.org/1999/xlink" x="0px" y="0px"
	 viewBox="0 0 25 25" style="enable-background:new 0 0 25 25;" xml:space="preserve">
<style type="text/css">
	.st0{fill:#787B8B;}
</style>
<g>
	<path class="st0" d="M19.7,22.3h-14c-0.8,0-1.6-0.3-2.1-0.9c-0.6-0.6-0.9-1.3-0.9-2.1v-4h2v4c0,0.3,0.1,0.5,0.3,0.7
		c0.2,0.2,0.4,0.3,0.7,0.3h14c0.3,0,0.5-0.1,0.7-0.3c0.2-0.2,0.3-0.4,0.3-0.7v-4h2v4c0,0.8-0.3,1.6-0.9,2.1S20.5,22.3,19.7,22.3z"/>
	<polygon class="st0" points="12.7,15.7 7,10 8.4,8.6 12.7,12.9 17,8.6 18.4,10 	"/>
	<rect x="11.7" y="2.3" class="st0" width="2" height="12"/>
</g>
</svg>
