<svg width="25" height="32" viewBox="0 0 25 32" fill="none" xmlns="http://www.w3.org/2000/svg">
<path d="M24.3745 7.1875C24.3744 6.94362 24.2797 6.70387 24.1004 6.52462L17.8504 0.274625C17.6711 0.0953125 17.4314 0.0005625 17.1875 0.0005V0H3.4375C1.54206 0 0 1.54206 0 3.4375V28.5625C0 30.4579 1.54206 32 3.4375 32H20.9375C22.8329 32 24.375 30.4579 24.375 28.5625V7.1875H24.3745ZM18.125 3.20081L21.1742 6.25H18.125V3.20081ZM20.9375 30.125H3.4375C2.57594 30.125 1.875 29.4241 1.875 28.5625V3.4375C1.875 2.57594 2.57594 1.875 3.4375 1.875H16.25V7.1875C16.25 7.70525 16.6698 8.125 17.1875 8.125H22.5V28.5625C22.5 29.4241 21.7991 30.125 20.9375 30.125Z" fill="white"/>
<path fill-rule="evenodd" clip-rule="evenodd" d="M17 14.875H8V13.125H17V14.875Z" fill="white"/>
<path fill-rule="evenodd" clip-rule="evenodd" d="M15 19.875H8V18.125H15V19.875Z" fill="white"/>
</svg>
