<svg width="31" height="31" viewBox="0 0 31 31" fill="none" xmlns="http://www.w3.org/2000/svg">
<path d="M30.9973 18.6742L31 12.5238L27.0057 12.0855C26.7887 11.3528 26.5018 10.6431 26.1481 9.96408L28.703 6.78349L24.355 2.4335L21.2205 4.94934C20.5475 4.58358 19.843 4.28412 19.1145 4.05428L18.6714 0H12.5209L12.0844 3.99446C11.3585 4.20976 10.655 4.49385 9.98182 4.84339L6.80462 2.28437L2.449 6.6268L4.96073 9.76464C4.59393 10.4373 4.2935 11.1415 4.06276 11.8694L0.00811328 12.3072L0 18.4577L3.99385 18.8994C4.21019 19.6321 4.49645 20.342 4.84968 21.0215L2.29206 24.1999L6.63636 28.5536L9.77311 26.0405C10.4459 26.4069 11.1502 26.707 11.8783 26.9375L12.3179 30.9921L18.4684 30.9974L18.9083 27.0033C19.6409 26.7867 20.3509 26.5 21.03 26.1466L24.2095 28.7029L28.5614 24.3567L26.047 21.2211C26.413 20.5483 26.7128 19.8438 26.9431 19.1154L30.9973 18.6742ZM15.5013 21.0511C12.434 21.0511 9.94749 18.5646 9.94749 15.4973C9.94749 12.4301 12.434 9.94355 15.5013 9.94355C18.5685 9.94355 21.0551 12.4301 21.0551 15.4973C21.0551 18.5646 18.5686 21.0511 15.5013 21.0511Z" fill="#31313D"/>
</svg>
