<?xml version="1.0" encoding="utf-8"?>
<!-- Generator: Adobe Illustrator 24.2.3, SVG Export Plug-In . SVG Version: 6.00 Build 0)  -->
<svg version="1.1" id="Layer_1" xmlns="http://www.w3.org/2000/svg" xmlns:xlink="http://www.w3.org/1999/xlink" x="0px" y="0px"
	 viewBox="0 0 27 29" style="enable-background:new 0 0 27 29;" xml:space="preserve">
<style type="text/css">
	.st0{fill:#FFFFFF;}
</style>
<path class="st0" d="M8.7,29c-2.3,0-4.5-0.9-6.2-2.6C0.9,24.7,0,22.5,0,20.1s0.9-4.6,2.5-6.3l11.8-12C15.5,0.7,17.1,0,18.7,0
	c1.6,0,3.2,0.7,4.4,1.8c1.2,1.2,1.8,2.7,1.8,4.4s-0.6,3.2-1.8,4.4l-11.8,12c-0.7,0.7-1.6,1.1-2.5,1.1c-1,0-1.9-0.4-2.5-1.1
	c-0.7-0.7-1-1.6-1-2.6s0.4-1.9,1-2.6L17.1,6.5c0.4-0.4,1-0.4,1.4,0c0.4,0.4,0.4,1,0,1.4L7.6,19c-0.3,0.3-0.5,0.7-0.5,1.2
	s0.2,0.9,0.5,1.2c0.6,0.6,1.6,0.6,2.2,0l11.8-12c0.8-0.8,1.2-1.9,1.2-3s-0.4-2.2-1.2-3C20.9,2.4,19.8,2,18.7,2
	c-1.1,0-2.1,0.4-2.9,1.2L4,15.3c-1.3,1.3-2,3-2,4.9s0.7,3.6,2,4.9c1.3,1.3,3,2,4.7,2s3.5-0.7,4.7-2l11.8-12c0.4-0.4,1-0.4,1.4,0
	c0.4,0.4,0.4,1,0,1.4l-11.8,12C13.2,28.1,11.1,29,8.7,29z"/>
</svg>
