<svg width="21" height="22" viewBox="0 0 21 22" fill="none" xmlns="http://www.w3.org/2000/svg">
<path d="M10.4766 2.66702H20.0002" stroke="white" stroke-width="2" stroke-linecap="round"/>
<path d="M10.4766 11H20.0002" stroke="white" stroke-width="2" stroke-linecap="round"/>
<path d="M10.4766 11H20.0002" stroke="white" stroke-width="2" stroke-linecap="round"/>
<path d="M10.4766 19.333H20.0002" stroke="white" stroke-width="2" stroke-linecap="round"/>
<path fill-rule="evenodd" clip-rule="evenodd" d="M3.33352 3.85747C3.99099 3.85747 4.52398 3.32449 4.52398 2.66702C4.52398 2.00955 3.99099 1.47656 3.33352 1.47656C2.67605 1.47656 2.14307 2.00955 2.14307 2.66702C2.14307 3.32449 2.67605 3.85747 3.33352 3.85747Z" fill="white" stroke="white"/>
<path fill-rule="evenodd" clip-rule="evenodd" d="M3.33352 12.1905C3.99099 12.1905 4.52398 11.6575 4.52398 11C4.52398 10.3426 3.99099 9.80957 3.33352 9.80957C2.67605 9.80957 2.14307 10.3426 2.14307 11C2.14307 11.6575 2.67605 12.1905 3.33352 12.1905Z" fill="white" stroke="white"/>
<path fill-rule="evenodd" clip-rule="evenodd" d="M3.33352 20.5235C3.99099 20.5235 4.52398 19.9905 4.52398 19.333C4.52398 18.6756 3.99099 18.1426 3.33352 18.1426C2.67605 18.1426 2.14307 18.6756 2.14307 19.333C2.14307 19.9905 2.67605 20.5235 3.33352 20.5235Z" fill="white" stroke="white"/>
</svg>
