<svg width="94" height="108" viewBox="0 0 94 108" fill="none" xmlns="http://www.w3.org/2000/svg">
<path fill-rule="evenodd" clip-rule="evenodd" d="M8.93506 28.0418L44.0176 7.73889L44.2712 8.17713L9.18868 28.48L8.93506 28.0418Z" fill="#E1E1E1"/>
<path fill-rule="evenodd" clip-rule="evenodd" d="M43.6293 6.05052L8.2102 26.5523L7.95654 26.1141L43.3757 5.6123L43.6293 6.05052Z" fill="#E1E1E1"/>
<path fill-rule="evenodd" clip-rule="evenodd" d="M25.8984 37.0212L45.421 8.88477L45.837 9.17341L26.3144 37.3098L25.8984 37.0212Z" fill="#E1E1E1"/>
<path fill-rule="evenodd" clip-rule="evenodd" d="M43.3432 8.68331L24.0195 36.6361L23.603 36.3482L42.9267 8.39539L43.3432 8.68331Z" fill="#E1E1E1"/>
<path fill-rule="evenodd" clip-rule="evenodd" d="M24.5552 37.6506L43.1751 26.7877L43.4302 27.2251L24.8103 38.088L24.5552 37.6506Z" fill="#E1E1E1"/>
<path fill-rule="evenodd" clip-rule="evenodd" d="M24.9551 39.8985L44.6307 28.6226L44.8824 29.0619L25.2068 40.3379L24.9551 39.8985Z" fill="#E1E1E1"/>
<path fill-rule="evenodd" clip-rule="evenodd" d="M22.7367 38.5019L7.31445 29.6586L7.56632 29.2194L22.9886 38.0627L22.7367 38.5019Z" fill="#E1E1E1"/>
<path fill-rule="evenodd" clip-rule="evenodd" d="M6.02128 30.9022L21.0916 39.516L20.8404 39.9556L5.77002 31.3418L6.02128 30.9022Z" fill="#E1E1E1"/>
<path fill-rule="evenodd" clip-rule="evenodd" d="M46.4784 30.005V40.2031H39.5625L36.0516 46.2463L25.7354 40.3379L25.987 39.8985L35.8666 45.5568L39.2711 39.6967H45.9721V30.005H46.4784Z" fill="#E1E1E1"/>
<path fill-rule="evenodd" clip-rule="evenodd" d="M48.3135 30.1733H48.8198V39.6356H55.268V40.1419H48.3135V30.1733Z" fill="#E1E1E1"/>
<path fill-rule="evenodd" clip-rule="evenodd" d="M54.79 39.8815L55.2242 39.621L58.6765 45.3748L67.9623 40.0366L68.2147 40.4756L58.498 46.0615L54.79 39.8815Z" fill="#E1E1E1"/>
<path fill-rule="evenodd" clip-rule="evenodd" d="M68.9863 42.1794L69.2419 42.6165L60.1736 47.92L63.5008 53.5958L60.1104 59.5329L69.3789 64.9146L69.1247 65.3525L59.4214 59.7183L62.9159 53.5991L59.4805 47.7388L68.9863 42.1794Z" fill="#E1E1E1"/>
<path fill-rule="evenodd" clip-rule="evenodd" d="M58.2201 61.2087L68.1534 66.9028L67.9016 67.3421L58.4041 61.8979L55.0915 67.5745H48.0918V67.0682H54.8007L58.2201 61.2087Z" fill="#E1E1E1"/>
<path fill-rule="evenodd" clip-rule="evenodd" d="M48.1445 77.909V67.3215H48.6509V77.909H48.1445Z" fill="#E1E1E1"/>
<path fill-rule="evenodd" clip-rule="evenodd" d="M39.5027 67.0988L36.2403 61.397L35.8008 61.6484L39.2091 67.6051H45.9877V78.0159H46.494V67.0988H39.5027Z" fill="#E1E1E1"/>
<path fill-rule="evenodd" clip-rule="evenodd" d="M36.4073 61.589L27.3345 66.8216L27.0815 66.3829L36.1544 61.1504L36.4073 61.589Z" fill="#E1E1E1"/>
<path fill-rule="evenodd" clip-rule="evenodd" d="M25.4545 42.0421L35.1887 47.77L31.7248 53.6881L35.2825 59.6538L25.6226 65.3213L25.3663 64.8846L34.5864 59.4751L31.1367 53.6905L34.4966 47.9502L25.1978 42.4785L25.4545 42.0421Z" fill="#E1E1E1"/>
<path fill-rule="evenodd" clip-rule="evenodd" d="M50.3601 7.3407L85.4885 27.5671L85.2359 28.0059L50.1074 7.77949L50.3601 7.3407Z" fill="#E1E1E1"/>
<path fill-rule="evenodd" clip-rule="evenodd" d="M86.7507 26.3841L51.2856 5.95879L51.5383 5.52002L87.0034 25.9453L86.7507 26.3841Z" fill="#E1E1E1"/>
<path fill-rule="evenodd" clip-rule="evenodd" d="M51.0655 26.5092L85.1842 29.3549L85.1421 29.8595L51.0234 27.0137L51.0655 26.5092Z" fill="#E1E1E1"/>
<path fill-rule="evenodd" clip-rule="evenodd" d="M84.3324 27.4574L50.4585 24.6881L50.4998 24.1835L84.3736 26.9527L84.3324 27.4574Z" fill="#E1E1E1"/>
<path fill-rule="evenodd" clip-rule="evenodd" d="M50.4053 26.3582L69.117 37.068L68.8655 37.5075L50.1538 26.7976L50.4053 26.3582Z" fill="#E1E1E1"/>
<path fill-rule="evenodd" clip-rule="evenodd" d="M48.4798 27.7974L68.0636 39.1957L67.8089 39.6334L48.2251 28.235L48.4798 27.7974Z" fill="#E1E1E1"/>
<path fill-rule="evenodd" clip-rule="evenodd" d="M48.2057 24.5134L48.1445 6.75028L48.6509 6.74854L48.7121 24.5117L48.2057 24.5134Z" fill="#E1E1E1"/>
<path fill-rule="evenodd" clip-rule="evenodd" d="M46.417 6.24304L46.5088 23.5931L46.0024 23.5957L45.9106 6.24572L46.417 6.24304Z" fill="#E1E1E1"/>
<path fill-rule="evenodd" clip-rule="evenodd" d="M70.605 67.092V43.469H71.1113V67.092H70.605Z" fill="#E1E1E1"/>
<path fill-rule="evenodd" clip-rule="evenodd" d="M72.8389 66.4187V42.5968H73.3452V66.4187H72.8389Z" fill="#E1E1E1"/>
<path fill-rule="evenodd" clip-rule="evenodd" d="M73.3209 44.248L87.8252 74.8783L87.3675 75.095L72.8633 44.4647L73.3209 44.248Z" fill="#E1E1E1"/>
<path fill-rule="evenodd" clip-rule="evenodd" d="M74.1314 40.8668L88.8346 71.9102L88.377 72.1269L73.6738 41.0836L74.1314 40.8668Z" fill="#E1E1E1"/>
<path fill-rule="evenodd" clip-rule="evenodd" d="M88.7978 30.0509V74.4358H88.2915V30.0509H88.7978Z" fill="#E1E1E1"/>
<path fill-rule="evenodd" clip-rule="evenodd" d="M90.5107 75.92V30.5865H91.0171V75.92H90.5107Z" fill="#E1E1E1"/>
<path fill-rule="evenodd" clip-rule="evenodd" d="M75.1015 68.1888L87.2189 75.2268L86.9646 75.6646L74.8472 68.6267L75.1015 68.1888Z" fill="#E1E1E1"/>
<path fill-rule="evenodd" clip-rule="evenodd" d="M86.7659 78.006L73.7764 70.5397L74.0287 70.1007L87.0183 77.567L86.7659 78.006Z" fill="#E1E1E1"/>
<path fill-rule="evenodd" clip-rule="evenodd" d="M87.0805 78.4645L49.0909 100.496L48.8369 100.058L86.8264 78.0265L87.0805 78.4645Z" fill="#E1E1E1"/>
<path fill-rule="evenodd" clip-rule="evenodd" d="M48.9146 102.628L88.2505 79.9845L88.5031 80.4233L49.1672 103.067L48.9146 102.628Z" fill="#E1E1E1"/>
<path fill-rule="evenodd" clip-rule="evenodd" d="M67.6701 72.56L48.8054 99.8855L48.3887 99.5979L67.2534 72.2723L67.6701 72.56Z" fill="#E1E1E1"/>
<path fill-rule="evenodd" clip-rule="evenodd" d="M51.8623 98.3427L70.8953 70.9254L71.3112 71.2142L52.2782 98.6315L51.8623 98.3427Z" fill="#E1E1E1"/>
<path fill-rule="evenodd" clip-rule="evenodd" d="M48.3794 80.5353L68.9577 68.6932L69.2102 69.1321L48.6319 80.9742L48.3794 80.5353Z" fill="#E1E1E1"/>
<path fill-rule="evenodd" clip-rule="evenodd" d="M49.6943 82.3562L70.1961 70.4835L70.4499 70.9217L49.9481 82.7944L49.6943 82.3562Z" fill="#E1E1E1"/>
<path fill-rule="evenodd" clip-rule="evenodd" d="M6.45014 77.1544L45.5872 99.89L45.3328 100.328L6.1958 77.5922L6.45014 77.1544Z" fill="#E1E1E1"/>
<path fill-rule="evenodd" clip-rule="evenodd" d="M46.007 103.434L5.73779 80.0862L5.99176 79.6482L46.261 102.996L46.007 103.434Z" fill="#E1E1E1"/>
<path fill-rule="evenodd" clip-rule="evenodd" d="M11.0711 79.8596L44.6084 82.4453L44.5695 82.9501L11.0322 80.3645L11.0711 79.8596Z" fill="#E1E1E1"/>
<path fill-rule="evenodd" clip-rule="evenodd" d="M22.4538 69.0603L44.302 81.6062L44.0498 82.0453L22.2017 69.4994L22.4538 69.0603Z" fill="#E1E1E1"/>
<path fill-rule="evenodd" clip-rule="evenodd" d="M24.6704 67.8511L45.5241 79.7238L45.2736 80.1638L24.4199 68.2911L24.6704 67.8511Z" fill="#E1E1E1"/>
<path fill-rule="evenodd" clip-rule="evenodd" d="M41.3867 80.487L7.86475 77.9013L7.90369 77.3965L41.4256 79.9822L41.3867 80.487Z" fill="#E1E1E1"/>
<path fill-rule="evenodd" clip-rule="evenodd" d="M8.09326 77.4456L21.0522 69.8722L21.3077 70.3093L8.34874 77.8828L8.09326 77.4456Z" fill="#E1E1E1"/>
<path fill-rule="evenodd" clip-rule="evenodd" d="M6.27246 75.8082L20.3024 67.6381L20.5572 68.0756L6.52726 76.2457L6.27246 75.8082Z" fill="#E1E1E1"/>
<path fill-rule="evenodd" clip-rule="evenodd" d="M45.957 101.333V84.0594H46.4634V101.333H45.957Z" fill="#E1E1E1"/>
<path fill-rule="evenodd" clip-rule="evenodd" d="M48.1138 100.721V84.0594H48.6201V100.721H48.1138Z" fill="#E1E1E1"/>
<path fill-rule="evenodd" clip-rule="evenodd" d="M6.00928 75.4151V31.8412H6.51561V75.4151H6.00928Z" fill="#E1E1E1"/>
<path fill-rule="evenodd" clip-rule="evenodd" d="M4.15966 31.5352V75.614H3.65332V31.5352H4.15966Z" fill="#E1E1E1"/>
<path fill-rule="evenodd" clip-rule="evenodd" d="M6.76596 30.3092L22.2035 62.6225L21.7466 62.8407L6.30908 30.5275L6.76596 30.3092Z" fill="#E1E1E1"/>
<path fill-rule="evenodd" clip-rule="evenodd" d="M6.49116 34.9614L21.1331 66.0048L20.6752 66.2208L6.0332 35.1774L6.49116 34.9614Z" fill="#E1E1E1"/>
<path fill-rule="evenodd" clip-rule="evenodd" d="M22.3662 42.4897V65.3018H21.8599V42.4897H22.3662Z" fill="#E1E1E1"/>
<path fill-rule="evenodd" clip-rule="evenodd" d="M24.0171 65.6996V42.8263H24.5234V65.6996H24.0171Z" fill="#E1E1E1"/>
<path fill-rule="evenodd" clip-rule="evenodd" d="M73.1323 39.8079L87.5754 31.3777L87.8306 31.815L73.3876 40.2452L73.1323 39.8079Z" fill="#E1E1E1"/>
<path fill-rule="evenodd" clip-rule="evenodd" d="M88.5048 28.923L72.7154 38.1947L72.459 37.758L88.2484 28.4863L88.5048 28.923Z" fill="#E1E1E1"/>
<path d="M47.4036 9.53385C49.7188 9.53385 51.5957 7.65696 51.5957 5.34169C51.5957 3.02643 49.7188 1.14954 47.4036 1.14954C45.0883 1.14954 43.2114 3.02643 43.2114 5.34169C43.2114 7.65696 45.0883 9.53385 47.4036 9.53385Z" fill="#E1E1E1"/>
<path fill-rule="evenodd" clip-rule="evenodd" d="M47.4043 1.40282C45.2289 1.40282 43.4653 3.16637 43.4653 5.34181C43.4653 7.51725 45.2289 9.2808 47.4043 9.2808C49.5798 9.2808 51.3433 7.51725 51.3433 5.34181C51.3433 3.16637 49.5798 1.40282 47.4043 1.40282ZM42.959 5.34181C42.959 2.88672 44.9492 0.896484 47.4043 0.896484C49.8594 0.896484 51.8496 2.88672 51.8496 5.34181C51.8496 7.7969 49.8594 9.78714 47.4043 9.78714C44.9492 9.78714 42.959 7.7969 42.959 5.34181Z" fill="#E1E1E1"/>
<path d="M89.555 33.264C91.8702 33.264 93.7471 31.3871 93.7471 29.0718C93.7471 26.7565 91.8702 24.8796 89.555 24.8796C87.2397 24.8796 85.3628 26.7565 85.3628 29.0718C85.3628 31.3871 87.2397 33.264 89.555 33.264Z" fill="#E1E1E1"/>
<path fill-rule="evenodd" clip-rule="evenodd" d="M89.5547 25.1328C87.3793 25.1328 85.6157 26.8963 85.6157 29.0718C85.6157 31.2472 87.3793 33.0108 89.5547 33.0108C91.7301 33.0108 93.4937 31.2472 93.4937 29.0718C93.4937 26.8963 91.7301 25.1328 89.5547 25.1328ZM85.1094 29.0718C85.1094 26.6167 87.0996 24.6265 89.5547 24.6265C92.0098 24.6265 94 26.6167 94 29.0718C94 31.5269 92.0098 33.5171 89.5547 33.5171C87.0996 33.5171 85.1094 31.5269 85.1094 29.0718Z" fill="#E1E1E1"/>
<path d="M72.0823 44.3256C74.3976 44.3256 76.2745 42.4487 76.2745 40.1334C76.2745 37.8182 74.3976 35.9413 72.0823 35.9413C69.767 35.9413 67.8901 37.8182 67.8901 40.1334C67.8901 42.4487 69.767 44.3256 72.0823 44.3256Z" fill="#E1E1E1"/>
<path fill-rule="evenodd" clip-rule="evenodd" d="M72.0825 36.1946C69.9071 36.1946 68.1435 37.9581 68.1435 40.1336C68.1435 42.309 69.9071 44.0725 72.0825 44.0725C74.258 44.0725 76.0215 42.309 76.0215 40.1336C76.0215 37.9581 74.258 36.1946 72.0825 36.1946ZM67.6372 40.1336C67.6372 37.6785 69.6274 35.6882 72.0825 35.6882C74.5376 35.6882 76.5279 37.6785 76.5279 40.1336C76.5279 42.5886 74.5376 44.5789 72.0825 44.5789C69.6274 44.5789 67.6372 42.5886 67.6372 40.1336Z" fill="#E1E1E1"/>
<path d="M47.4495 30.5559C49.7647 30.5559 51.6416 28.6791 51.6416 26.3638C51.6416 24.0485 49.7647 22.1716 47.4495 22.1716C45.1342 22.1716 43.2573 24.0485 43.2573 26.3638C43.2573 28.6791 45.1342 30.5559 47.4495 30.5559Z" fill="#E1E1E1"/>
<path fill-rule="evenodd" clip-rule="evenodd" d="M47.4492 22.4248C45.2738 22.4248 43.5102 24.1883 43.5102 26.3638C43.5102 28.5392 45.2738 30.3028 47.4492 30.3028C49.6247 30.3028 51.3882 28.5392 51.3882 26.3638C51.3882 24.1883 49.6247 22.4248 47.4492 22.4248ZM43.0039 26.3638C43.0039 23.9087 44.9941 21.9185 47.4492 21.9185C49.9043 21.9185 51.8946 23.9087 51.8946 26.3638C51.8946 28.8189 49.9043 30.8091 47.4492 30.8091C44.9941 30.8091 43.0039 28.8189 43.0039 26.3638Z" fill="#E1E1E1"/>
<path d="M23.3684 44.3256C25.6837 44.3256 27.5606 42.4487 27.5606 40.1334C27.5606 37.8182 25.6837 35.9413 23.3684 35.9413C21.0532 35.9413 19.1763 37.8182 19.1763 40.1334C19.1763 42.4487 21.0532 44.3256 23.3684 44.3256Z" fill="#E1E1E1"/>
<path fill-rule="evenodd" clip-rule="evenodd" d="M23.3682 36.1946C21.1927 36.1946 19.4292 37.9581 19.4292 40.1336C19.4292 42.309 21.1927 44.0725 23.3682 44.0725C25.5436 44.0725 27.3072 42.309 27.3072 40.1336C27.3072 37.9581 25.5436 36.1946 23.3682 36.1946ZM18.9229 40.1336C18.9229 37.6785 20.9131 35.6882 23.3682 35.6882C25.8233 35.6882 27.8135 37.6785 27.8135 40.1336C27.8135 42.5886 25.8233 44.5789 23.3682 44.5789C20.9131 44.5789 18.9229 42.5886 18.9229 40.1336Z" fill="#E1E1E1"/>
<path d="M23.429 72.1255C25.7442 72.1255 27.6211 70.2486 27.6211 67.9334C27.6211 65.6181 25.7442 63.7412 23.429 63.7412C21.1137 63.7412 19.2368 65.6181 19.2368 67.9334C19.2368 70.2486 21.1137 72.1255 23.429 72.1255Z" fill="#E1E1E1"/>
<path fill-rule="evenodd" clip-rule="evenodd" d="M23.4292 63.9945C21.2538 63.9945 19.4902 65.758 19.4902 67.9335C19.4902 70.1089 21.2538 71.8725 23.4292 71.8725C25.6047 71.8725 27.3682 70.1089 27.3682 67.9335C27.3682 65.758 25.6047 63.9945 23.4292 63.9945ZM18.9839 67.9335C18.9839 65.4784 20.9741 63.4882 23.4292 63.4882C25.8843 63.4882 27.8745 65.4784 27.8745 67.9335C27.8745 70.3886 25.8843 72.3788 23.4292 72.3788C20.9741 72.3788 18.9839 70.3886 18.9839 67.9335Z" fill="#E1E1E1"/>
<path d="M5.11501 81.5656C7.43027 81.5656 9.30717 79.6887 9.30717 77.3734C9.30717 75.0582 7.43027 73.1813 5.11501 73.1813C2.79974 73.1813 0.922852 75.0582 0.922852 77.3734C0.922852 79.6887 2.79974 81.5656 5.11501 81.5656Z" fill="#E1E1E1"/>
<path fill-rule="evenodd" clip-rule="evenodd" d="M5.11476 73.4343C2.93932 73.4343 1.17577 75.1979 1.17577 77.3733C1.17577 79.5487 2.93932 81.3123 5.11476 81.3123C7.2902 81.3123 9.05375 79.5487 9.05375 77.3733C9.05375 75.1979 7.2902 73.4343 5.11476 73.4343ZM0.669434 77.3733C0.669434 74.9182 2.65967 72.928 5.11476 72.928C7.56984 72.928 9.56008 74.9182 9.56008 77.3733C9.56008 79.8284 7.56984 81.8186 5.11476 81.8186C2.65967 81.8186 0.669434 79.8284 0.669434 77.3733Z" fill="#E1E1E1"/>
<path d="M47.4798 85.7576C49.795 85.7576 51.6719 83.8807 51.6719 81.5654C51.6719 79.2502 49.795 77.3733 47.4798 77.3733C45.1645 77.3733 43.2876 79.2502 43.2876 81.5654C43.2876 83.8807 45.1645 85.7576 47.4798 85.7576Z" fill="#E1E1E1"/>
<path fill-rule="evenodd" clip-rule="evenodd" d="M47.4795 77.6265C45.3041 77.6265 43.5405 79.39 43.5405 81.5654C43.5405 83.7409 45.3041 85.5044 47.4795 85.5044C49.6549 85.5044 51.4185 83.7409 51.4185 81.5654C51.4185 79.39 49.6549 77.6265 47.4795 77.6265ZM43.0342 81.5654C43.0342 79.1104 45.0244 77.1201 47.4795 77.1201C49.9346 77.1201 51.9248 79.1104 51.9248 81.5654C51.9248 84.0205 49.9346 86.0108 47.4795 86.0108C45.0244 86.0108 43.0342 84.0205 43.0342 81.5654Z" fill="#E1E1E1"/>
<path d="M47.2815 106.795C49.5968 106.795 51.4737 104.918 51.4737 102.603C51.4737 100.288 49.5968 98.4108 47.2815 98.4108C44.9662 98.4108 43.0894 100.288 43.0894 102.603C43.0894 104.918 44.9662 106.795 47.2815 106.795Z" fill="#E1E1E1"/>
<path fill-rule="evenodd" clip-rule="evenodd" d="M47.2813 98.6638C45.1058 98.6638 43.3423 100.427 43.3423 102.603C43.3423 104.778 45.1058 106.542 47.2813 106.542C49.4567 106.542 51.2203 104.778 51.2203 102.603C51.2203 100.427 49.4567 98.6638 47.2813 98.6638ZM42.8359 102.603C42.8359 100.148 44.8262 98.1575 47.2813 98.1575C49.7363 98.1575 51.7266 100.148 51.7266 102.603C51.7266 105.058 49.7363 107.048 47.2813 107.048C44.8262 107.048 42.8359 105.058 42.8359 102.603Z" fill="#E1E1E1"/>
<path d="M72.0369 72.1255C74.3521 72.1255 76.229 70.2486 76.229 67.9334C76.229 65.6181 74.3521 63.7412 72.0369 63.7412C69.7216 63.7412 67.8447 65.6181 67.8447 67.9334C67.8447 70.2486 69.7216 72.1255 72.0369 72.1255Z" fill="#E1E1E1"/>
<path fill-rule="evenodd" clip-rule="evenodd" d="M72.0366 63.9945C69.8612 63.9945 68.0976 65.758 68.0976 67.9335C68.0976 70.1089 69.8612 71.8725 72.0366 71.8725C74.2121 71.8725 75.9756 70.1089 75.9756 67.9335C75.9756 65.758 74.2121 63.9945 72.0366 63.9945ZM67.5913 67.9335C67.5913 65.4784 69.5815 63.4882 72.0366 63.4882C74.4917 63.4882 76.482 65.4784 76.482 67.9335C76.482 70.3886 74.4917 72.3788 72.0366 72.3788C69.5815 72.3788 67.5913 70.3886 67.5913 67.9335Z" fill="#E1E1E1"/>
<path d="M89.5237 81.6421C91.839 81.6421 93.7159 79.7652 93.7159 77.45C93.7159 75.1347 91.839 73.2578 89.5237 73.2578C87.2084 73.2578 85.3315 75.1347 85.3315 77.45C85.3315 79.7652 87.2084 81.6421 89.5237 81.6421Z" fill="#E1E1E1"/>
<path fill-rule="evenodd" clip-rule="evenodd" d="M89.5235 73.511C87.348 73.511 85.5845 75.2745 85.5845 77.45C85.5845 79.6254 87.348 81.389 89.5235 81.389C91.6989 81.389 93.4624 79.6254 93.4624 77.45C93.4624 75.2745 91.6989 73.511 89.5235 73.511ZM85.0781 77.45C85.0781 74.9949 87.0684 73.0046 89.5235 73.0046C91.9785 73.0046 93.9688 74.9949 93.9688 77.45C93.9688 79.905 91.9785 81.8953 89.5235 81.8953C87.0684 81.8953 85.0781 79.905 85.0781 77.45Z" fill="#E1E1E1"/>
<path d="M5.17604 33.4018C7.49131 33.4018 9.3682 31.5249 9.3682 29.2096C9.3682 26.8943 7.49131 25.0175 5.17604 25.0175C2.86078 25.0175 0.983887 26.8943 0.983887 29.2096C0.983887 31.5249 2.86078 33.4018 5.17604 33.4018Z" fill="#E1E1E1"/>
<path fill-rule="evenodd" clip-rule="evenodd" d="M5.17677 25.2705C3.00133 25.2705 1.23778 27.034 1.23778 29.2095C1.23778 31.3849 3.00133 33.1485 5.17677 33.1485C7.35221 33.1485 9.11576 31.3849 9.11576 29.2095C9.11576 27.034 7.35221 25.2705 5.17677 25.2705ZM0.731445 29.2095C0.731445 26.7544 2.72169 24.7642 5.17677 24.7642C7.63186 24.7642 9.6221 26.7544 9.6221 29.2095C9.6221 31.6646 7.63186 33.6548 5.17677 33.6548C2.72169 33.6548 0.731445 31.6646 0.731445 29.2095Z" fill="#E1E1E1"/>
<path d="M44.9405 53.123C44.5121 52.4957 44.0225 52.0214 43.4717 51.7002C42.9209 51.3636 42.1865 51.2106 41.2991 51.2106C40.2741 51.2106 39.4479 51.5013 38.8206 52.0979C38.2086 52.7099 37.8873 53.5208 37.8873 54.5459C37.8873 55.0508 37.9791 55.5098 38.1474 55.9229C38.3157 56.336 38.5452 56.6879 38.8512 56.9786C39.1419 57.2693 39.5091 57.4988 39.9222 57.6518C40.3353 57.8201 40.7943 57.8966 41.2991 57.8966C42.1865 57.8966 42.9056 57.7283 43.4717 57.4223C44.0225 57.101 44.5121 56.6267 44.9252 55.9994L47.2967 57.3305C46.7153 58.4321 45.9197 59.2583 44.9252 59.7938C43.9307 60.3446 42.7373 60.62 41.345 60.62C40.4118 60.62 39.5397 60.4823 38.7441 60.1916C37.9485 59.9162 37.26 59.5184 36.6786 58.9982C36.0972 58.478 35.6382 57.8354 35.3169 57.0857C34.9803 56.3207 34.812 55.4792 34.812 54.5459C34.812 53.6126 34.9803 52.7711 35.3169 52.0367C35.6688 51.2871 36.1278 50.6445 36.7092 50.1243C37.3059 49.6041 37.9944 49.2063 38.7747 48.9156C39.5703 48.6249 40.4271 48.4872 41.345 48.4872C44.1296 48.4872 46.1186 49.5735 47.3273 51.7613L44.9405 53.123ZM55.6198 48.7626C56.3083 48.7626 56.9662 48.8697 57.5476 49.0992C58.1443 49.3134 58.6492 49.6347 59.0776 50.0325C59.4907 50.4303 59.8273 50.9199 60.0721 51.486C60.3169 52.052 60.4393 52.6793 60.4393 53.3525C60.4393 54.041 60.3169 54.6683 60.0721 55.2191C59.8273 55.7699 59.506 56.2442 59.0776 56.642C58.6492 57.0245 58.1443 57.3305 57.5476 57.5447C56.9662 57.7436 56.3236 57.8507 55.6198 57.8507H51.8713V60.314H48.7961V48.7626H55.6198ZM51.8713 55.0508H55.5127C56.0482 55.0508 56.4919 54.9131 56.8438 54.6377C57.1957 54.3623 57.364 53.9339 57.364 53.3525C57.364 52.8017 57.1957 52.358 56.8438 52.0367C56.4919 51.7155 56.0482 51.5625 55.5127 51.5625H51.8713V55.0508Z" fill="#E1E1E1"/>
</svg>
