<?xml version="1.0" encoding="utf-8"?>
<!-- Generator: Adobe Illustrator 24.2.3, SVG Export Plug-In . SVG Version: 6.00 Build 0)  -->
<svg version="1.1" id="Layer_1" xmlns="http://www.w3.org/2000/svg" xmlns:xlink="http://www.w3.org/1999/xlink" x="0px" y="0px"
	 viewBox="0 0 18 27" style="enable-background:new 0 0 18 27;" xml:space="preserve">
<style type="text/css">
	.st0{fill:#555867;}
</style>
<rect x="5" y="24.1" class="st0" width="8.2" height="2"/>
<rect x="8" y="20.7" class="st0" width="2" height="3.6"/>
<path class="st0" d="M9,22.1c-5,0-9-4-9-9h2c0,3.9,3.1,7,7,7c3.9,0,7-3.1,7-7h2C18,18.1,14,22.1,9,22.1z"/>
<path class="st0" d="M9.2,18.2C6.3,18.2,4,15.8,4,13V5.3c0-2.8,2.3-5.2,5.2-5.2c2.8,0,5.2,2.3,5.2,5.2V13
	C14.3,15.8,12,18.2,9.2,18.2z M9.2,2.1C7.4,2.1,6,3.5,6,5.3V13c0,1.7,1.4,3.2,3.2,3.2c1.7,0,3.2-1.4,3.2-3.2V5.3
	C12.3,3.5,10.9,2.1,9.2,2.1z"/>
</svg>
