<svg width="32" height="28" viewBox="0 0 32 28" fill="none" xmlns="http://www.w3.org/2000/svg">
<path d="M31.0625 22.0916H30.9959V3.44788C30.9959 1.54675 29.4491 0 27.5479 0H4.45206C2.55094 0 1.00419 1.54675 1.00419 3.44788V22.0916H0.9375C0.41975 22.0916 0 22.5114 0 23.0291C0 25.7609 2.22244 27.9833 4.95419 27.9833H27.0459C29.7776 27.9833 32.0001 25.7609 32.0001 23.0291C32 22.5113 31.5802 22.0916 31.0625 22.0916ZM2.87919 3.44788C2.87919 2.58063 3.58475 1.875 4.45206 1.875H27.5479C28.4152 1.875 29.1208 2.58063 29.1208 3.44788V22.0916H23.5101V21.386C23.5101 18.4586 21.8264 15.9173 19.3766 14.6789C20.8819 13.6158 21.867 11.8626 21.867 9.88356C21.867 6.6485 19.2351 4.01663 16.0001 4.01663C12.7649 4.01663 10.1329 6.6485 10.1329 9.88356C10.1329 11.8626 11.118 13.6157 12.6234 14.6789C10.1736 15.9173 8.48975 18.4586 8.48975 21.386V22.0916H2.87913V3.44788H2.87919ZM12.008 9.88356C12.008 7.68237 13.7989 5.89163 16.0001 5.89163C18.2013 5.89163 19.9921 7.68237 19.9921 9.88356C19.9921 12.0848 18.2013 13.8757 16.0001 13.8757C13.7989 13.8757 12.008 12.0849 12.008 9.88356ZM21.6352 22.0916H10.3648V21.386C10.3648 18.2787 12.8928 15.7507 16.0001 15.7507C19.1073 15.7507 21.6352 18.2787 21.6352 21.386V22.0916ZM27.0459 26.1082H4.95419C3.58306 26.1082 2.41844 25.2074 2.02094 23.9666H9.42731H22.5727H29.9791C29.5816 25.2075 28.417 26.1082 27.0459 26.1082Z" fill="white"/>
</svg>
