<svg width="33" height="25" viewBox="0 0 33 25" fill="none" xmlns="http://www.w3.org/2000/svg">
<path d="M11.0753 13.0311C14.6955 13.0311 17.6301 10.114 17.6301 6.51556C17.6301 2.91716 14.6955 0 11.0753 0C7.45525 0 4.52051 2.91711 4.52051 6.51556C4.52051 10.114 7.45525 13.0311 11.0753 13.0311ZM33 15.7364V17.4458C33 17.6991 32.8124 17.9936 32.5795 18.0966C31.677 18.4958 29.2153 19.3128 24.185 19.3128C23.944 19.3128 23.7143 19.3094 23.485 19.3057C23.2641 15.6845 20.5002 12.7022 16.8478 12.211C17.6341 11.4279 18.6749 10.8971 19.8355 10.7651C19.9116 10.7565 20.0244 10.7889 20.0864 10.8335C21.2408 11.6642 22.654 12.16 24.185 12.16C25.7158 12.16 27.1291 11.6642 28.2834 10.8335C28.3454 10.7888 28.4582 10.7564 28.5343 10.7651C31.0379 11.0497 33 13.1748 33 15.7364ZM22.1507 19.7713V21.919C22.1507 22.2373 21.9149 22.6073 21.6223 22.7367C20.4884 23.2381 17.3955 24.2647 11.0753 24.2647C4.75513 24.2647 1.66224 23.2382 0.528324 22.7367C0.235799 22.6074 0 22.2373 0 21.9191V19.7714C0 16.5529 2.46519 13.883 5.61075 13.5254C5.7063 13.5145 5.84806 13.5552 5.92598 13.6113C7.37631 14.6549 9.15195 15.2779 11.0753 15.2779C12.9987 15.2779 14.7743 14.6549 16.2247 13.6113C16.3026 13.5552 16.4444 13.5145 16.54 13.5254C19.6855 13.883 22.1507 16.5529 22.1507 19.7713ZM24.185 5.35692e-05C21.3036 5.35692e-05 18.9678 2.32184 18.9678 5.18589C18.9678 8.04998 21.3036 10.3717 24.185 10.3717C27.0663 10.3717 29.402 8.04988 29.402 5.18589C29.402 2.32179 27.0663 5.35692e-05 24.185 5.35692e-05Z" fill="#31313D"/>
</svg>
