<svg width="360" height="1080" viewBox="0 0 360 1080" fill="none" xmlns="http://www.w3.org/2000/svg">
<path d="M360 1080H240L360 960V1080Z" fill="#F1F1F1"/>
<path d="M360 720H240L360 600V720Z" fill="#F1F1F1"/>
<path d="M360 360H240L360 240V360Z" fill="#F1F1F1"/>
<path d="M120 1080H0L120 960V1080Z" fill="#F1F1F1"/>
<path d="M120 720H0L120 600V720Z" fill="#F1F1F1"/>
<path d="M120 360H0L120 240V360Z" fill="#F1F1F1"/>
<path d="M240 1080H120L240 960V1080Z" fill="#F1F1F1"/>
<path d="M240 720H120L240 600V720Z" fill="#F1F1F1"/>
<path d="M240 360H120L240 240V360Z" fill="#F1F1F1"/>
<path d="M360 960H240L360 840V960Z" fill="#F1F1F1"/>
<path d="M360 600H240L360 480V600Z" fill="#F1F1F1"/>
<path d="M360 240H240L360 120V240Z" fill="#F1F1F1"/>
<path d="M120 960H0L120 840V960Z" fill="#F1F1F1"/>
<path d="M120 600H0L120 480V600Z" fill="#F1F1F1"/>
<path d="M120 240H0L120 120V240Z" fill="#F1F1F1"/>
<path d="M240 960H120L240 840V960Z" fill="#F1F1F1"/>
<path d="M240 600H120L240 480V600Z" fill="#F1F1F1"/>
<path d="M240 240H120L240 120V240Z" fill="#F1F1F1"/>
<path d="M360 840H240L360 720V840Z" fill="#F1F1F1"/>
<path d="M360 480H240L360 360V480Z" fill="#F1F1F1"/>
<path d="M360 120H240L360 0V120Z" fill="#F1F1F1"/>
<path d="M120 840H0L120 720V840Z" fill="#F1F1F1"/>
<path d="M120 480H0L120 360V480Z" fill="#F1F1F1"/>
<path d="M120 120H0L120 0V120Z" fill="#F1F1F1"/>
<path d="M240 840H120L240 720V840Z" fill="#F1F1F1"/>
<path d="M240 480H120L240 360V480Z" fill="#F1F1F1"/>
<path d="M240 120H120L240 0V120Z" fill="#F1F1F1"/>
</svg>
