<svg width="32" height="32" viewBox="0 0 32 32" fill="none" xmlns="http://www.w3.org/2000/svg">
<path d="M14.0921 0C6.32194 0 0 6.32194 0 14.0921C0 21.8628 6.32194 28.1842 14.0921 28.1842C21.8628 28.1842 28.1842 21.8628 28.1842 14.0921C28.1842 6.32194 21.8628 0 14.0921 0ZM14.0921 25.5827C7.75631 25.5827 2.60162 20.428 2.60162 14.0922C2.60162 7.75638 7.75631 2.60162 14.0921 2.60162C20.4279 2.60162 25.5826 7.75631 25.5826 14.0921C25.5826 20.4279 20.4279 25.5827 14.0921 25.5827Z" fill="#4B4D5C"/>
<path d="M31.619 29.7795L24.161 22.3215C23.6528 21.8133 22.8298 21.8133 22.3216 22.3215C21.8134 22.8293 21.8134 23.6531 22.3216 24.1609L29.7796 31.6189C30.0337 31.873 30.3663 32 30.6993 32C31.0318 32 31.3648 31.873 31.619 31.6189C32.1272 31.1111 32.1272 30.2873 31.619 29.7795Z" fill="#4B4D5C"/>
</svg>
