<svg width="15" height="20" viewBox="0 0 15 20" fill="none" xmlns="http://www.w3.org/2000/svg">
<path d="M11.4062 8.44849C12.8955 7.16491 13.75 5.32226 13.75 3.39416V2.5H15V0H2.5e-06V2.5H1.25V3.39416C1.25 5.32226 2.10449 7.16491 3.59314 8.44849L4.29504 9.05335C4.57458 9.29443 4.729 9.63074 4.729 10C4.729 10.3693 4.57458 10.7056 4.29443 10.9467L3.59375 11.5515C2.10449 12.8351 1.25 14.6777 1.25 16.6058V17.5H0V20H15V17.5H13.75V16.6058C13.75 14.6777 12.8955 12.8351 11.4069 11.5515L10.705 10.9467C10.4254 10.7056 10.271 10.3693 10.271 10C10.271 9.63074 10.4254 9.29443 10.7056 9.05335L11.4062 8.44849ZM10.3125 17.5H4.6875L7.5 13.75L10.3125 17.5Z" fill="#C4C4C4"/>
</svg>
