<svg xmlns="http://www.w3.org/2000/svg" viewBox="0 0 20 22"><defs><style>.cls-1{fill:#787b8b;}</style></defs><g id="Layer_2" data-name="Layer 2"><g id="Layer_1-2" data-name="Layer 1"><path class="cls-1" d="M17,22H3a3,3,0,0,1-3-3V5A3,3,0,0,1,3,2H17a3,3,0,0,1,3,3V19A3,3,0,0,1,17,22ZM3,4A.94.94,0,0,0,2,5V19a.94.94,0,0,0,1,1H17a.94.94,0,0,0,1-1V5a.94.94,0,0,0-1-1Z"/><rect class="cls-1" x="13" width="2" height="5"/><rect class="cls-1" x="5" width="2" height="5"/><rect class="cls-1" x="1" y="8" width="18" height="2"/></g></g></svg>