<svg width="0" height="0" class="hidden">
  <symbol xmlns="http://www.w3.org/2000/svg" viewBox="0 0 152.62 118.5" id="arrow-left">
    <path d="M60 117.79L1.41 59.25 60 .71M6.62 59.23h146"></path>
  </symbol>
  <symbol xmlns="http://www.w3.org/2000/svg" viewBox="0 0 140 160.81" id="bell">
    <path d="M22 48.41v24.7a57.72 57.72 0 01-13.61 37.11h124.22A57.72 57.72 0 01119 73.11v-24.7a48.5 48.5 0 00-97 0zM0 138.22h140v-17H0zm70.08 22.59a12.86 12.86 0 0012.85-12.59H57.24a12.85 12.85 0 0012.84 12.59z"></path>
  </symbol>
  <symbol xmlns="http://www.w3.org/2000/svg" viewBox="0 0 138.18 115.55" id="books">
    <path d="M0 115V0h35v115zm7.48-33.6a10 10 0 009.85 10.13 10.16 10.16 0 000-20.32A10 10 0 007.48 81.4zM40 115V0h35v115zm7.79-33.6a9.88 9.88 0 109.84-10.19 10 10 0 00-9.84 10.19zm55.85 34.15L80.61 7.19l34.54-6.8 23 109.4zM104.87 86a9.9 9.9 0 0012.27 7.2 10.15 10.15 0 007.47-12 10 10 0 00-12-7.19A10.12 10.12 0 00104.87 86z"></path>
  </symbol>
  <symbol xmlns="http://www.w3.org/2000/svg" viewBox="0 0 102 118" id="calendar">
    <path d="M89.84 17H12.16A11.16 11.16 0 001 28.16v77.68A11.16 11.16 0 0012.16 117h77.68A11.16 11.16 0 00101 105.84V28.16A11.16 11.16 0 0089.84 17zM73 0v28M28 0v28M1 51h100"></path>
  </symbol>
  <symbol xmlns="http://www.w3.org/2000/svg" viewBox="0 0 174.17 113.29" id="check">
    <path d="M1.06 49.23L63 111.17 173.11 1.06" fill="none" stroke="#fff" stroke-width="3"></path>
  </symbol>
  <symbol xmlns="http://www.w3.org/2000/svg" viewBox="0 0 228.79 228.79" id="check-circle">
    <path d="M152 66.15l20.22 20.22-67.31 67.31L66.15 115l20.22-20.25 18.49 18.49z"></path>
    <path d="M114.39 28.6a85.8 85.8 0 1085.8 85.79 85.79 85.79 0 00-85.8-85.79zM0 114.39a114.4 114.4 0 11114.39 114.4A114.4 114.4 0 010 114.39z"></path>
  </symbol>
  <symbol xmlns="http://www.w3.org/2000/svg" viewBox="0 0 195.06 195.06" id="clock">
    <path d="M77.48 57.06h24v37h37v24h-61z"></path>
    <path d="M97.53 24.38a73.15 73.15 0 1073.15 73.15 73.15 73.15 0 00-73.15-73.15zM0 97.53a97.53 97.53 0 1197.53 97.53A97.54 97.54 0 010 97.53z"></path>
  </symbol>
  <symbol xmlns="http://www.w3.org/2000/svg" viewBox="0 0 136.55 136.55" id="close">
    <path d="M.71.71l135.14 135.14m0-135.14L.71 135.85"></path>
  </symbol>
  <symbol xmlns="http://www.w3.org/2000/svg" viewBox="0 0 142.01 142.01" id="crop">
    <path d="M33 0l-.84 97a13 13 0 008.22 12.08 13.25 13.25 0 004.94.89H142"></path>
    <path d="M0 33l97-.84a13 13 0 0112.08 8.22 13.25 13.25 0 01.89 4.94V142"></path>
  </symbol>
  <symbol xmlns="http://www.w3.org/2000/svg" viewBox="0 0 131 168" id="delete">
    <path d="M28.69 168h74.62A18.74 18.74 0 00122 149.31V37H10v112.31A18.74 18.74 0 0028.69 168zm4.05-84.85L46 69.93l19.77 19.81 19.8-19.81L98.8 83.15 79 103l19.8 19.77L85.57 136l-19.8-19.81L46 136l-13.26-13.23L52.55 103zM98.3 9L89 0H42.24L32.9 9H0v19h131V9z"></path>
  </symbol>
  <symbol xmlns="http://www.w3.org/2000/svg" viewBox="0 0 210.75 210.75" id="disc">
    <path d="M118.47 118.47a18.52 18.52 0 10-26.19 0 18.54 18.54 0 0026.19 0zM101 101a6.17 6.17 0 110 8.73 6.17 6.17 0 010-8.73z"></path>
    <path d="M105.37 0C47.35 0 0 47.36 0 105.37s47.36 105.38 105.37 105.38 105.38-47.36 105.38-105.38S163.39 0 105.37 0zm93 105.37a92.48 92.48 0 01-10.27 42.46l-42.9-25.74a43.22 43.22 0 00-56.54-56.57l-25.74-42.9a93 93 0 01135.48 82.75zM83.54 83.54a30.87 30.87 0 110 43.66 30.92 30.92 0 010-43.66zM52.34 29l25.73 42.87c-1.12.91-2.21 1.9-3.26 2.94s-2 2.14-2.94 3.26L29 52.34A93.86 93.86 0 0152.34 29zm-40 76.38a92.43 92.43 0 0110.28-42.46l42.9 25.74a43.22 43.22 0 0056.57 56.57l25.74 42.9a93 93 0 01-135.48-82.76zm146.06 76.38l-25.72-42.88a45.41 45.41 0 006.2-6.2l42.88 25.72a93.93 93.93 0 01-23.36 23.36z"></path>
  </symbol>
  <symbol xmlns="http://www.w3.org/2000/svg" viewBox="0 0 78 81" id="download">
    <path d="M77 55v16.54a8 8 0 01-.32 2.39A8.46 8.46 0 0168.56 80H9.47a8.28 8.28 0 01-2.38-.31A8.46 8.46 0 011 71.6V55m17.13-25.59l21 21 21-21M39 50V0"></path>
  </symbol>
  <symbol xmlns="http://www.w3.org/2000/svg" viewBox="0 0 59.16 124.24" id="dragdrop">
    <circle cx="8.87" cy="8.87" r="8.87"></circle>
    <circle cx="8.87" cy="62.12" r="8.87"></circle>
    <circle cx="8.87" cy="115.37" r="8.87"></circle>
    <circle cx="50.29" cy="8.87" r="8.87"></circle>
    <circle cx="50.29" cy="62.12" r="8.87"></circle>
    <circle cx="50.29" cy="115.37" r="8.87"></circle>
  </symbol>
  <symbol xmlns="http://www.w3.org/2000/svg" viewBox="0 0 184 242.45" id="file">
    <path d="M184 54.45a7.17 7.17 0 00-2.06-5L135 2.08A7 7 0 00130 0v.45H26a26 26 0 00-26 26v190a26 26 0 0026 26h132a26 26 0 0026-26v-162zm-47-30.08l23.08 23.08H137zm21.17 204.08H25.83A11.83 11.83 0 0114 216.63V26.28a11.83 11.83 0 0111.83-11.83H123v39.91a7.09 7.09 0 007.1 7.09H170v155.18a11.83 11.83 0 01-11.83 11.82z" ></path>
    <path d="M128 112.45H60v-13h68zm-15 38H60v-13h53z"></path>
  </symbol>
  <symbol xmlns="http://www.w3.org/2000/svg" viewBox="0 0 134.05 134.02" id="gears">
    <path d="M134 80.74V54.15l-17.27-1.9a51.94 51.94 0 00-3.71-9.17l11-13.75-18.8-18.81L91.76 21.4a51.4 51.4 0 00-9.11-3.87L80.74 0h-26.6l-1.89 17.27a51.77 51.77 0 00-9.09 3.67L29.42 9.88 10.59 28.65l10.86 13.57a51.34 51.34 0 00-3.88 9.1L0 53.21v26.6l17.27 1.91A51.9 51.9 0 0021 90.89L9.91 104.63l18.79 18.83 13.56-10.87a51.34 51.34 0 009.1 3.88l1.9 17.53h26.6l1.9-17.27a51 51 0 009.18-3.7l13.74 11 18.82-18.79-10.87-13.49a51.3 51.3 0 003.87-9.1zm-66.89 10a24 24 0 1124-24 24 24 0 01-23.96 23.97z" ></path>
  </symbol>
  <symbol xmlns="http://www.w3.org/2000/svg" viewBox="0 0 75 74" id="grid">
    <path d="M29 1H1v28h28zm45 0H46v28h28zm0 44H46v28h28zm-45 0H1v28h28z"></path>
  </symbol>
  <symbol xmlns="http://www.w3.org/2000/svg" viewBox="0 0 54.76 58.99" id="link">
    <path d="M53.76 27.71L28.82 53.12a16.07 16.07 0 01-23 0 16.82 16.82 0 010-23.47l25-25.41a10.72 10.72 0 0115.36 0 11.22 11.22 0 010 15.65l-25 25.41a5.36 5.36 0 01-7.68 0 5.61 5.61 0 010-7.83L36.47 14" fill="none" stroke="#fff" stroke-linecap="round" stroke-linejoin="round" stroke-width="2"></path>
  </symbol>
  <symbol xmlns="http://www.w3.org/2000/svg" viewBox="0 0 91.84 104.45" id="logo">
    <path d="M8.13 26.71l34.53-20 .24.43-34.52 20zM42.27 5.07L7.42 25.25l-.25-.44L42 4.64zM24.83 35.55L44 7.86l.41.28-19.18 27.69z"></path>
    <path d="M42 7.66L23 35.17l-.41-.29 19-27.5zM23.5 36.17l18.33-10.69.25.43L23.75 36.6zm.4 2.21l19.36-11.1.25.44-19.36 11.09zM21.71 37L6.54 28.3l.25-.43L22 36.57zM5.27 29.53L20.1 38l-.25.43L5 30zm39.59-1.08v9h-6.59l-3.45 7.17-10.15-5.81.24-.43L34.63 44 38 38.45h5.88v-10zm2 1h1v9h-1zm6.4 8.91l.42-.25 3.4 5.66 9.14-5.26.25.44-9.57 5.49zm13.96 2.26l.26.43-8.93 5.22 3.28 5.59-3.34 5.84 9.12 5.3-.25.44-9.55-5.55 3.44-6-3.38-5.77zM56.63 59.35L66.41 65l-.25.43L56.81 60l-3.26 4.42h-6.69v1h6.41zm-9.77 16.1v-10h1v10zm-8.65-11L35 59.53l-.43.25 3.35 5.67h5.94v10h1v-11z"></path>
    <path d="M35.17 59.72l-8.93 5.15-.24-.43 8.93-5.15zM24.39 40.49L34 46.12 30.56 52l3.5 5.87-9.51 5.57-.25-.44 9.07-5.33L30 52l3.31-5.65-9.15-5.38zM48.9 6.34l34.56 19.9-.25.44L48.65 6.77zm35.81 18.74L49.81 5l.25-.43L85 24.65zm-35.12.12L83.16 28v.5l-33.61-2.8z"></path>
    <path d="M82.33 26.14L49 23.41v-.5l33.34 2.73zm-33.39-1.09l18.41 10.54-.24.44-18.42-10.54zm-1.89 1.42l19.27 11.22-.25.43L46.8 26.9zm-.19-3.02v-17h1v17zm-3-18v17h1v-17zm25 60v-23h1v23zm2-1v-23 23zm.63-21.79L85.76 72.8l-.45.21L71 42.87zm.8-3.33l14.47 30.55-.45.21-14.47-30.55zm14.57-10.88v44-44zm1 46v-45h1v45zm-14.62-8.23l11.93 6.92-.25.43L73 66.65zm11.48 9.66l-12.78-7.35.25-.43L85 75.44zm.28.45L47.65 98l-.25-.43L84.78 75.9zm-37.53 23.78l38.71-22.29.25.44-38.71 22.28zm18.46-29.59L47.37 97.41l-.37-.29 18.52-26.89z"></path>
    <path d="M50.37 95.89l18.73-27 .41.28-18.73 27zM47 78.37l20.2-11.66.25.43L47.2 78.8zm1.24 1.79l20.18-11.69.24.44-20.17 11.68zM5.69 75L44.2 97.41l-.25.43L5.44 75.47zm38.92 25.9L5 77.92l.25-.43 39.62 23z"></path>
    <path d="M10.24 77.7l33 2.55v.49l-33-2.54zm11.2-10.63l21.5 12.35-.25.43-21.5-12.34zm2.18-1.19l20.52 11.69-.25.43-20.52-11.68z"></path>
    <path d="M40.07 78.32l-33-2.55v-.49l33 2.54z"></path>
    <path d="M7.31 75.33l12.75-7.46.25.43-12.75 7.46zm-1.8-1.62l13.81-8 .25.44-13.81 8zm38.35 24.74v-17h1v17zm3 0v-16h1v16zm-41-25v-43 43zm-3-43v43-43zM6 28.94l15.19 31.8-.45.21L5.55 29.16zm-.27 4.58l14.41 30.55-.45.21L5.28 33.73z"></path>
    <path d="M20.86 41.45v22h1v-22zm2 23v-23 23zM71.3 38.29L85.52 30l.25.43-14.21 8.3zm15.13-10.71L70.89 36.7l-.25-.43 15.54-9.12zM46 8.5a4.13 4.13 0 10-4.13-4.13A4.12 4.12 0 0046 8.5z"></path>
    <path d="M46 .5a3.88 3.88 0 103.87 3.87A3.88 3.88 0 0046 .5zm-4.39 3.87A4.38 4.38 0 1146 8.75a4.38 4.38 0 01-4.39-4.38zm45.85 27.48a4.13 4.13 0 10-4.12-4.13 4.13 4.13 0 004.12 4.13z"></path>
    <path d="M87.46 23.85a3.88 3.88 0 103.88 3.87 3.87 3.87 0 00-3.88-3.87zm-4.37 3.87a4.38 4.38 0 114.37 4.38 4.37 4.37 0 01-4.37-4.38zM70.27 42.73a4.13 4.13 0 10-4.12-4.12 4.12 4.12 0 004.12 4.12z"></path>
    <path d="M70.27 34.73a3.88 3.88 0 103.88 3.88 3.88 3.88 0 00-3.88-3.88zm-4.37 3.88A4.38 4.38 0 1170.27 43a4.37 4.37 0 01-4.37-4.39zM46 29.19a4.13 4.13 0 10-4.12-4.13A4.13 4.13 0 0046 29.19z"></path>
    <path d="M46 21.18a3.88 3.88 0 103.88 3.88A3.88 3.88 0 0046 21.18zm-4.37 3.88A4.38 4.38 0 1146 29.43a4.37 4.37 0 01-4.34-4.37zM22.34 42.73a4.13 4.13 0 10-4.13-4.12 4.12 4.12 0 004.13 4.12z"></path>
    <path d="M22.34 34.73a3.88 3.88 0 103.87 3.88 3.88 3.88 0 00-3.87-3.88zM18 38.61A4.38 4.38 0 1122.34 43 4.37 4.37 0 0118 38.61zm4.4 31.48A4.13 4.13 0 1018.27 66a4.13 4.13 0 004.13 4.09z"></path>
    <path d="M22.4 62.09A3.88 3.88 0 1026.27 66a3.88 3.88 0 00-3.87-3.91zM18 66a4.38 4.38 0 114.38 4.37A4.38 4.38 0 0118 66zM4.37 79.38a4.13 4.13 0 10-4.12-4.13 4.13 4.13 0 004.12 4.13z"></path>
    <path d="M4.37 71.38a3.88 3.88 0 103.88 3.87 3.87 3.87 0 00-3.88-3.87zM0 75.25a4.38 4.38 0 114.37 4.38A4.37 4.37 0 010 75.25zm46.06 8.25a4.13 4.13 0 10-4.12-4.12 4.12 4.12 0 004.12 4.12z"></path>
    <path d="M46.06 75.5a3.88 3.88 0 103.88 3.88 3.88 3.88 0 00-3.88-3.88zm-4.37 3.88a4.38 4.38 0 114.37 4.37 4.37 4.37 0 01-4.37-4.37zm4.18 24.83a4.13 4.13 0 10-4.13-4.13 4.12 4.12 0 004.13 4.13z"></path>
    <path d="M45.87 96.2a3.88 3.88 0 103.87 3.88 3.88 3.88 0 00-3.87-3.88zm-4.38 3.88a4.38 4.38 0 114.38 4.37 4.37 4.37 0 01-4.38-4.37zm28.74-29.99A4.13 4.13 0 1066.1 66a4.13 4.13 0 004.13 4.09z"></path>
    <path d="M70.23 62.09A3.88 3.88 0 1074.1 66a3.88 3.88 0 00-3.87-3.91zM65.85 66a4.38 4.38 0 114.38 4.37A4.38 4.38 0 0165.85 66zm21.58 13.45a4.13 4.13 0 10-4.12-4.12 4.12 4.12 0 004.12 4.12z"></path>
    <path d="M87.43 71.45a3.88 3.88 0 103.88 3.88 3.88 3.88 0 00-3.88-3.88zm-4.37 3.88a4.38 4.38 0 114.37 4.37 4.37 4.37 0 01-4.37-4.37zM4.43 32a4.13 4.13 0 10-4.12-4.14A4.13 4.13 0 004.43 32z"></path>
    <path d="M4.44 24a3.88 3.88 0 103.87 3.88A3.88 3.88 0 004.44 24zM.06 27.86a4.38 4.38 0 114.38 4.37 4.37 4.37 0 01-4.38-4.37zm43.5 23.53A4.55 4.55 0 0042.12 50a4.11 4.11 0 00-2.12-.49 3.42 3.42 0 00-2.44.87 3.28 3.28 0 00-.92 2.41 3.51 3.51 0 00.26 1.36 3 3 0 00.69 1 3 3 0 001.06.66 3.61 3.61 0 001.35.24 4.49 4.49 0 002.14-.47 4.32 4.32 0 001.43-1.4l2.33 1.31A5.65 5.65 0 0143.55 58a7.18 7.18 0 01-3.52.81 7.55 7.55 0 01-2.56-.42 6 6 0 01-2-1.18 5.33 5.33 0 01-1.34-1.88 6.13 6.13 0 01-.49-2.5 5.63 5.63 0 011.86-4.35 6.67 6.67 0 012-1.19 7.42 7.42 0 012.5-.46 6.18 6.18 0 015.88 3.22zm11.06-3.94a5.19 5.19 0 011.91.34 4.49 4.49 0 011.52.92 4.59 4.59 0 011 1.44 4.66 4.66 0 01.34 1.85 4.59 4.59 0 01-.39 1.85 4.36 4.36 0 01-1 1.41 4.59 4.59 0 01-1.52.89 5.8 5.8 0 01-1.91.3h-3.71v2h-3v-11zm-3.76 6H54a4.05 4.05 0 001.31-.57 1.51 1.51 0 00.51-1.26 1.71 1.71 0 00-.51-1.3.81.81 0 00-1.31.13h-3.14z"></path>
  </symbol>
  <symbol xmlns="http://www.w3.org/2000/svg" viewBox="0 0 64 65" id="logout">
    <path d="M41 57H8V8h33v4h8V0H0v65h49V52h-8v5z"></path>
    <path d="M49.17 17.17l-5.65 5.66L48.69 28H28v8h20.69l-5.17 5.17 5.65 5.66L64 32z"></path>
  </symbol>
  <symbol xmlns="http://www.w3.org/2000/svg" viewBox="0 0 97.94 143.63" id="mic">
    <path d="M72.82 143.63h-47v-9h47z"></path>
    <path d="M53.82 118.63v21h-9v-21z"></path>
    <path d="M8.9 73.63a40.07 40.07 0 0080.13 0h8.91a49 49 0 01-97.94 0z"></path>
    <rect x="19.82" width="59" height="103.25" rx="29.5" ></rect>
    <rect x="19.82" width="59" height="103.25" rx="29.5" ></rect>
  </symbol>
  <symbol xmlns="http://www.w3.org/2000/svg" viewBox="0 0 88.7 131.9" id="mic-o">
    <path d="M22.61 130.9h45m-23-4v-20M87.7 66A43.35 43.35 0 011 66"></path>
    <path d="M45.11 1a22.5 22.5 0 0122.5 22.5v41.88a22.5 22.5 0 01-22.5 22.5 22.5 22.5 0 01-22.5-22.5V23.5A22.5 22.5 0 0145.11 1z"></path>
  </symbol>
  <symbol xmlns="http://www.w3.org/2000/svg" viewBox="0 0 135.78 120" id="notebook">
    <path d="M133.6 95h-.34V14.87A14.87 14.87 0 00118.39 0H19.13A14.87 14.87 0 004.26 14.87V95H2.18A2.09 2.09 0 00.1 96.88 21 21 0 0021 120h93.74a21 21 0 0020.92-23.12A2.09 2.09 0 00133.6 95zM12.26 14.77A6.78 6.78 0 0119 8h99.45a6.79 6.79 0 016.78 6.78V95h-24v-3a32.42 32.42 0 00-17.86-29 25.39 25.39 0 10-29.22 0 32.42 32.42 0 00-17.89 29v3h-24V14.77zm39.4 27.64a17.22 17.22 0 1117.22 17.21 17.23 17.23 0 01-17.22-17.21zM93.26 95h-49v-2.57c0-11.32 9.06-22.53 20.23-24.42A24.48 24.48 0 0193.26 92zm23.26 17H21.23a13.29 13.29 0 01-12.65-9h120.59a13.29 13.29 0 01-12.65 9z" ></path>
  </symbol>
  <symbol xmlns="http://www.w3.org/2000/svg" viewBox="0 0 119 87.56" id="people">
    <path d="M39.9 47a23.51 23.51 0 10-23.65-23.5A23.58 23.58 0 0039.9 47zm79.1 9.78v6.16a2.79 2.79 0 01-1.52 2.35c-3.25 1.44-12.13 4.39-30.28 4.39h-2.53a27.58 27.58 0 00-24-25.59 18.22 18.22 0 0110.83-5.25 1.53 1.53 0 01.91.25 25.26 25.26 0 0029.57 0 1.48 1.48 0 01.91-.25A18.16 18.16 0 01119 56.78zM80 71.34v7.75a3.52 3.52 0 01-1.91 3C74 83.86 62.83 87.56 40 87.56S6 83.86 1.91 82A3.48 3.48 0 010 79.1v-7.76a22.83 22.83 0 0120.27-22.56 1.9 1.9 0 011.13.31 31.74 31.74 0 0037.2 0 1.9 1.9 0 011.13-.31A22.83 22.83 0 0180 71.34zM87.2 0A18.71 18.71 0 10106 18.71 18.77 18.77 0 0087.2 0z" ></path>
  </symbol>
  <symbol xmlns="http://www.w3.org/2000/svg" viewBox="0 0 69.51 92.68" id="play">
    <path d="M69.51 46.34L0 92.68V0z" ></path>
  </symbol>
  <symbol xmlns="http://www.w3.org/2000/svg" viewBox="0 0 111 111" id="plus">
    <path d="M55.5 0v111M111 55.5H0"></path>
  </symbol>
  <symbol xmlns="http://www.w3.org/2000/svg" viewBox="0 0 118.18 118.18" id="redact">
    <path d="M11.82 81.54L0 118.18l36.64-11.82zm65.95-66.15L20.11 73.05l25.07 25.07 57.66-57.66zm38.64 2.93L99.86 1.77a5.72 5.72 0 00-8.27 0l-5.32 5.32 24.82 24.82 5.32-5.32a5.72 5.72 0 000-8.27z"></path>
  </symbol>
  <symbol xmlns="http://www.w3.org/2000/svg" viewBox="0 0 110.33 110.33" id="search">
    <path d="M48.59 0a48.59 48.59 0 1048.59 48.59A48.65 48.65 0 0048.59 0zm0 88.21a39.62 39.62 0 1139.62-39.62 39.67 39.67 0 01-39.62 39.62z"></path>
    <path d="M109 102.68L83.31 77A4.49 4.49 0 1077 83.3l25.68 25.7a4.49 4.49 0 006.34 0 4.48 4.48 0 00-.02-6.32z"></path>
  </symbol>
  <symbol xmlns="http://www.w3.org/2000/svg" viewBox="0 0 94 104" id="stop">
    <path d="M0 0h31v104H0zm63 0h31v104H63z"></path>
  </symbol>
  <symbol xmlns="http://www.w3.org/2000/svg" viewBox="0 0 60 80" id="stop-big">
    <path d="M1 0v80M59 0v80"></path>
  </symbol>
  <symbol xmlns="http://www.w3.org/2000/svg" viewBox="0 0 108 144" id="time">
    <path d="M82.12 60.83A48.09 48.09 0 0099 24.44V18h9V0H0v18h9v6.44a48.11 48.11 0 0016.87 36.39L30.75 65A9.29 9.29 0 0134 71.12a8.92 8.92 0 01-3.09 7.7l-5.05 4.35A48.11 48.11 0 009 119.56V126H0v18h108v-18h-9v-6.44a48.11 48.11 0 00-16.87-36.39L77.25 79A9.29 9.29 0 0174 72.88a8.92 8.92 0 013.09-7.7zM74.06 126h-40.4l20.2-26.93z" ></path>
  </symbol>
  <symbol xmlns="http://www.w3.org/2000/svg" viewBox="0 0 167 94" id="video">
    <path d="M0 0h122v94H0zm131 30.47l36-20.66v72.31l-36-20.66z"></path>
  </symbol>
  <symbol xmlns="http://www.w3.org/2000/svg" viewBox="0 0 116.71 111.49" id="volume">
    <g stroke="#555867" stroke-width="2">
      <path d="M70 2.08L31.67 32.75H1v46h30.67L70 109.41z" ></path>
      <path d="M104.47 28.14a38.37 38.37 0 010 54.27" fill="none"></path>
    </g>
  </symbol>
  <symbol xmlns="http://www.w3.org/2000/svg" viewBox="0 0 124 114" id="archive">
    <path d="M0 0v29h5v85h113V29h6V0zm78 50H45.6a4 4 0 01-4.35-3.65A4.05 4.05 0 0144.76 42H78a3.54 3.54 0 012.81 1.26A4.19 4.19 0 0182 46.07 4 4 0 0178 50zm38-29H7V8h109z" ></path>
  </symbol>
  <symbol xmlns="http://www.w3.org/2000/svg" viewBox="0 0 122.05 62.44" id="arrow-down">
    <path d="M.71.71L61 61 121.34.71" fill="none" stroke="#555867" stroke-width="2"></path>
  </symbol>
</svg>
