
<svg width="0" height="0" class="hidden">
  <symbol xmlns="http://www.w3.org/2000/svg" viewBox="0 0 124 114" id="archive">
    <path d="M0 0v29h5v85h113V29h6V0zm78 50H45.6a4 4 0 01-4.35-3.65A4.05 4.05 0 0144.76 42H78a3.54 3.54 0 012.81 1.26A4.19 4.19 0 0182 46.07 4 4 0 0178 50zm38-29H7V8h109z" ></path>
  </symbol>
  <symbol xmlns="http://www.w3.org/2000/svg" viewBox="0 0 179.79 108.68" id="arrow-down">
    <path  d="M89.9 108.68L0 18.79 18.79 0 89.9 71.11 161.01 0l18.78 18.79-89.89 89.89z"></path>
  </symbol>
  <symbol xmlns="http://www.w3.org/2000/svg" viewBox="0 0 162 128.82" id="arrow-left">
    <path d="M64.41 128.82L0 64.41 64.41 0l13.46 13.46-50.95 50.95 50.95 50.95-13.46 13.46z"></path>
    <path d="M18 54.72h144v19H18z"></path>
  </symbol>

  <symbol xmlns="http://www.w3.org/2000/svg" viewBox="0 0 17 15" id="phone">
      <path d="M9.94375 8.74736C8.96299 9.69076 7.77631 10.4191 6.46704 10.8813L4.6958 9.54479C4.64329 9.5105 4.58103 9.49214 4.51727 9.49214C4.45351 9.49214 4.39125 9.5105 4.33874 9.54479L1.04996 11.554C0.925109 11.6251 0.819418 11.7229 0.74124 11.8394C0.663061 11.956 0.614538 12.0882 0.599501 12.2256C0.584463 12.363 0.603325 12.5018 0.654595 12.6311C0.705866 12.7604 0.788141 12.8767 0.894922 12.9706L2.43595 14.414C2.65664 14.6208 2.92788 14.7725 3.22547 14.8557C3.52306 14.9389 3.83773 14.9509 4.14141 14.8907C7.17074 14.2975 9.96294 12.908 12.1989 10.8813C14.3852 8.83434 15.8982 6.22981 16.5542 3.38362C16.619 3.10012 16.6055 2.80556 16.5149 2.52848C16.4244 2.2514 16.2599 2.0012 16.0374 1.80212L14.44 0.340897C14.3411 0.244575 14.2206 0.170707 14.0873 0.124822C13.9541 0.0789378 13.8117 0.0622262 13.6707 0.0759389C13.5297 0.0896515 13.3938 0.133433 13.2731 0.204005C13.1525 0.274578 13.0503 0.370112 12.9741 0.483455L10.7847 3.56182C10.747 3.61015 10.7266 3.66872 10.7266 3.72888C10.7266 3.78903 10.747 3.8476 10.7847 3.89594L12.2271 5.53981C11.7265 6.75642 10.9465 7.85211 9.94375 8.74736Z"/>
  </symbol>

  <symbol xmlns="http://www.w3.org/2000/svg" viewBox="0 0 140 160.81" id="bell">
    <path d="M22 48.41v24.7a57.72 57.72 0 01-13.61 37.11h124.22A57.72 57.72 0 01119 73.11v-24.7a48.5 48.5 0 00-97 0zM0 138.22h140v-17H0zm70.08 22.59a12.86 12.86 0 0012.85-12.59H57.24a12.85 12.85 0 0012.84 12.59z"></path>
  </symbol>
  <symbol xmlns="http://www.w3.org/2000/svg" viewBox="0 0 138.18 115.55" id="books">
    <path d="M0 115V0h35v115zm7.48-33.6a10 10 0 009.85 10.13 10.16 10.16 0 000-20.32A10 10 0 007.48 81.4zM40 115V0h35v115zm7.79-33.6a9.88 9.88 0 109.84-10.19 10 10 0 00-9.84 10.19zm55.85 34.15L80.61 7.19l34.54-6.8 23 109.4zM104.87 86a9.9 9.9 0 0012.27 7.2 10.15 10.15 0 007.47-12 10 10 0 00-12-7.19A10.12 10.12 0 00104.87 86z"></path>
  </symbol>
  <symbol xmlns="http://www.w3.org/2000/svg" viewBox="0 0 20 22" id="calendar">
    <path d="M17 22H3a3 3 0 01-3-3V5a3 3 0 013-3h14a3 3 0 013 3v14a3 3 0 01-3 3zM3 4a.94.94 0 00-1 1v14a.94.94 0 001 1h14a.94.94 0 001-1V5a.94.94 0 00-1-1z"></path>
    <path d="M13 0h2v5h-2zM5 0h2v5H5zM1 8h18v2H1z"></path>
  </symbol>
  <symbol xmlns="http://www.w3.org/2000/svg" viewBox="0 0 154.88 118" id="check">
    <path  d="M59 118L0 60.05l23.18-23.17L59 73.75 131.7 0l23.18 23.18L59 118z"></path>
  </symbol>
  <symbol xmlns="http://www.w3.org/2000/svg" viewBox="0 0 228.79 228.79" id="check-circle">
    <path d="M152 66.15l20.22 20.22-67.31 67.31L66.15 115l20.22-20.25 18.49 18.49z"></path>
    <path d="M114.39 28.6a85.8 85.8 0 1085.8 85.79 85.79 85.79 0 00-85.8-85.79zM0 114.39a114.4 114.4 0 11114.39 114.4A114.4 114.4 0 010 114.39z"></path>
  </symbol>
  <symbol xmlns="http://www.w3.org/2000/svg" viewBox="0 0 195.06 195.06" id="clock">
    <path d="M77.48 57.06h24v37h37v24h-61z"></path>
    <path d="M97.53 24.38a73.15 73.15 0 1073.15 73.15 73.15 73.15 0 00-73.15-73.15zM0 97.53a97.53 97.53 0 1197.53 97.53A97.54 97.54 0 010 97.53z"></path>
  </symbol>
  <symbol xmlns="http://www.w3.org/2000/svg" viewBox="0 0 128 128.47" id="close">
    <path d="M.002 9.778L9.314.465l118.688 118.688-9.312 9.313z"></path>
    <path d="M0 118.695L118.688.007 128 9.319 9.312 128.007z"></path>
  </symbol>
  <symbol xmlns="http://www.w3.org/2000/svg" viewBox="0 0 140 140" id="crop">
    <path d="M140 114H44.86c-5.15 0-9.72-1.68-13.15-5.62A18.16 18.16 0 0126 95.47L26.57 0H38l-.56 95.85c0 1.65.56 3.85 2.24 5a8.41 8.41 0 005 2.2H140z"></path>
    <path d="M114 140h-12V45.25c0-1.68-.56-3.91-2.23-5a8.25 8.25 0 00-5-2.23L0 38.56V27l95.47-.56A16.3 16.3 0 01108.38 32 18.2 18.2 0 01114 44.9z"></path>
  </symbol>
  <symbol xmlns="http://www.w3.org/2000/svg" viewBox="0 0 140 140" id="protocol">
    <svg width="100%" height="100%" viewBox="0 0 20 24" fill="none" xmlns="http://www.w3.org/2000/svg">
    <path d="M15 11.625V12.9375C15 13.2469 14.7187 13.5 14.375 13.5H5.625C5.28125 13.5 5 13.2469 5 12.9375V11.625C5 11.3156 5.28125 11.0625 5.625 11.0625H14.375C14.7187 11.0625 15 11.3156 15 11.625ZM14.375 15H5.625C5.28125 15 5 15.2531 5 15.5625V16.875C5 17.1844 5.28125 17.4375 5.625 17.4375H14.375C14.7187 17.4375 15 17.1844 15 16.875V15.5625C15 15.2531 14.7187 15 14.375 15ZM20 6.18281V21.75C20 22.9922 18.8802 24 17.5 24H2.5C1.11979 24 0 22.9922 0 21.75V2.25C0 1.00781 1.11979 0 2.5 0H13.1302C13.7917 0 14.4271 0.239063 14.8958 0.660938L19.2656 4.59375C19.7344 5.01094 20 5.5875 20 6.18281ZM13.3333 2.43281V6H17.2969L13.3333 2.43281V2.43281ZM17.5 21.75V8.25H12.0833C11.3906 8.25 10.8333 7.74844 10.8333 7.125V2.25H2.5V21.75H17.5Z" fill="#787B8B"/>
    </svg>
  </symbol>
  <symbol xmlns="http://www.w3.org/2000/svg" viewBox="0 0 131 168" id="delete">
    <path d="M28.69 168h74.62A18.74 18.74 0 00122 149.31V37H10v112.31A18.74 18.74 0 0028.69 168zm4.05-84.85L46 69.93l19.77 19.81 19.8-19.81L98.8 83.15 79 103l19.8 19.77L85.57 136l-19.8-19.81L46 136l-13.26-13.23L52.55 103zM98.3 9L89 0H42.24L32.9 9H0v19h131V9z"></path>
  </symbol>
  <symbol xmlns="http://www.w3.org/2000/svg" viewBox="0 0 210.75 210.75" id="disc">
    <path d="M118.47 118.47a18.52 18.52 0 10-26.19 0 18.54 18.54 0 0026.19 0zM101 101a6.17 6.17 0 110 8.73 6.17 6.17 0 010-8.73z"></path>
    <path d="M105.37 0C47.35 0 0 47.36 0 105.37s47.36 105.38 105.37 105.38 105.38-47.36 105.38-105.38S163.39 0 105.37 0zm93 105.37a92.48 92.48 0 01-10.27 42.46l-42.9-25.74a43.22 43.22 0 00-56.54-56.57l-25.74-42.9a93 93 0 01135.48 82.75zM83.54 83.54a30.87 30.87 0 110 43.66 30.92 30.92 0 010-43.66zM52.34 29l25.73 42.87c-1.12.91-2.21 1.9-3.26 2.94s-2 2.14-2.94 3.26L29 52.34A93.86 93.86 0 0152.34 29zm-40 76.38a92.43 92.43 0 0110.28-42.46l42.9 25.74a43.22 43.22 0 0056.57 56.57l25.74 42.9a93 93 0 01-135.48-82.76zm146.06 76.38l-25.72-42.88a45.41 45.41 0 006.2-6.2l42.88 25.72a93.93 93.93 0 01-23.36 23.36z"></path>
  </symbol>
  <symbol xmlns="http://www.w3.org/2000/svg" viewBox="0 0 146 146" id="download">
    <path d="M124.1 146H21.9c-5.84 0-11.68-2.19-15.33-6.56A20.94 20.94 0 010 124.14V95h14v29.6a6.76 6.76 0 002.19 5.18 6.62 6.62 0 005.12 2.22h102.38a6.62 6.62 0 005.12-2.22 6.76 6.76 0 002.19-5.18V95h15v29.14c0 5.83-2.19 11.66-6.57 15.3S129.94 146 124.1 146z"></path>
    <path d="M72.88 97.99L31.19 56.31l10.24-10.24 31.45 31.44 31.44-31.44 10.24 10.24-41.68 41.68z"></path>
    <path d="M65 0h15v88H65z"></path>
  </symbol>

  <symbol xmlns="http://www.w3.org/2000/svg" viewBox="0 0 20 14" id="replace">
    <path d="M8 5.99974H5.101L5.102 5.99074C5.23257 5.35138 5.48813 4.74409 5.854 4.20374C6.39845 3.40156 7.16215 2.7729 8.054 2.39274C8.356 2.26474 8.671 2.16674 8.992 2.10174C9.65789 1.96674 10.3441 1.96674 11.01 2.10174C11.967 2.29784 12.8451 2.77116 13.535 3.46274L14.951 2.05074C14.3128 1.41238 13.5578 0.902783 12.727 0.549742C12.3033 0.370371 11.8628 0.233695 11.412 0.141742C10.4818 -0.0472473 9.52316 -0.0472473 8.593 0.141742C8.14185 0.234076 7.70101 0.371085 7.277 0.550742C6.02753 1.08084 4.95793 1.96083 4.197 3.08474C3.68489 3.84259 3.32676 4.69373 3.143 5.58974C3.115 5.72474 3.1 5.86274 3.08 5.99974H0L4 9.99974L8 5.99974ZM12 7.99974H14.899L14.898 8.00774C14.6367 9.2895 13.8812 10.4168 12.795 11.1457C12.2548 11.5119 11.6475 11.7675 11.008 11.8977C10.3424 12.0327 9.65656 12.0327 8.991 11.8977C8.35163 11.7672 7.74435 11.5116 7.204 11.1457C6.93862 10.9662 6.69085 10.762 6.464 10.5357L5.05 11.9497C5.68851 12.5879 6.44392 13.0972 7.275 13.4497C7.699 13.6297 8.142 13.7667 8.59 13.8577C9.51982 14.0468 10.4782 14.0468 11.408 13.8577C13.2005 13.4857 14.7773 12.4292 15.803 10.9127C16.3146 10.1555 16.6724 9.30501 16.856 8.40974C16.883 8.27474 16.899 8.13674 16.919 7.99974H20L16 3.99974L12 7.99974Z"/>
  </symbol>

  <svg viewBox="0 0 490 550"  xmlns="http://www.w3.org/2000/svg" id="conf"  stroke="blue" fill="purple">
    <path stroke="blue" d="M0.200093 269.585C0.200093 209.653 0.200093 149.724 0.200093 89.7983C0.177786 78.0359 2.46938 66.3844 6.94388 55.5097C11.4184 44.6351 17.9881 34.7506 26.2774 26.4212C34.5667 18.0919 44.4132 11.4809 55.254 6.96627C66.0947 2.45163 77.7173 0.121825 89.4572 0.110017C193.031 0.0499977 296.606 0.0499977 400.18 0.110017C443.57 0.110017 481.48 32.6803 488.039 75.6638C488.764 80.4411 489.128 85.2663 489.127 90.0984C489.187 209.789 489.187 329.494 489.127 449.212C489.15 470.794 481.411 491.662 467.327 507.993C453.242 524.323 433.757 535.022 412.44 538.13C408.324 538.728 404.17 539.028 400.01 539.03C296.436 539.077 192.862 539.077 89.2875 539.03C45.3079 539.03 7.33867 506.02 1.11863 462.366C0.501304 457.995 0.191036 453.586 0.190115 449.172C0.163491 389.273 0.166813 329.411 0.200093 269.585ZM391.354 494.436C396.506 494.116 402.147 494.346 407.548 493.336C429.623 489.194 444.409 471.049 444.419 448.561C444.419 409.136 444.419 369.71 444.419 330.284C444.419 250.512 444.419 170.744 444.419 90.9787C444.419 81.9058 442.422 73.4331 437.43 65.8508C428.275 51.9264 415.286 44.8941 398.602 44.8941H91.0946C90.4257 44.8941 89.7667 44.8941 89.0978 44.8941C83.2178 44.962 77.4087 46.1899 72.0024 48.5077C66.5961 50.8254 61.6985 54.1876 57.5894 58.4021C53.4803 62.6166 50.2401 67.601 48.054 73.0704C45.8679 78.5398 44.7787 84.3872 44.8486 90.2785C44.8486 209.809 44.8686 329.341 44.9085 448.872C44.9085 466.807 53.2851 480.241 68.9201 488.974C78.2052 494.166 88.319 494.696 98.6924 493.976C98.4428 487.204 98.0734 480.632 97.9936 474.059C97.5143 438.368 101.488 403.237 111.252 368.836C119.429 340.037 131.121 312.819 148.523 288.351C161.292 270.345 176.478 254.9 195.697 243.777C197.255 242.877 198.832 241.996 200.609 240.986C178.395 226.121 164.667 205.975 161.003 179.597C157.339 153.218 164.527 129.941 181.969 109.885C212.69 74.5835 267.832 70.9924 303.125 102.092C321.096 117.917 331.39 137.893 332.628 161.821C334.415 196.492 319.589 222.98 290.825 242.096C291.444 242.506 291.823 242.807 292.263 243.097C309.675 252.85 323.832 266.294 335.973 281.989C352.436 303.276 364.168 327.083 372.854 352.451C386.132 391.223 391.624 431.226 391.274 472.119C391.304 479.311 391.354 486.543 391.354 494.436ZM143.271 494.006C144.659 494.086 145.268 494.156 145.957 494.156C211.745 494.156 277.533 494.173 343.321 494.206C345.318 494.206 345.817 493.456 345.927 491.635C347.754 460.375 346.136 429.365 339.447 398.706C333.766 372.618 324.98 347.61 311.142 324.672C302.017 309.578 291.174 295.973 276.478 285.87C256.051 271.866 235.244 271.496 214.447 284.87C203.954 291.622 195.408 300.435 187.95 310.338C171.855 331.705 161.512 355.842 154.244 381.41C147.231 406.368 143.426 432.121 142.922 458.044C142.652 469.938 143.141 481.852 143.271 494.006ZM246.496 119.328C233.839 119.327 221.696 124.343 212.718 133.281C203.739 142.219 198.654 154.352 198.573 167.033C198.573 193.831 219.699 215.558 245.917 215.598C273.063 215.598 294.599 194.441 294.629 167.643C294.668 161.294 293.451 155.001 291.047 149.127C288.644 143.253 285.101 137.915 280.625 133.422C276.149 128.929 270.827 125.37 264.969 122.95C259.111 120.531 252.832 119.3 246.496 119.328V119.328Z" fill="black"/>
  </svg>

  <symbol xmlns="http://www.w3.org/2000/svg" viewBox="0 0 59.16 124.24" id="dragdrop">
    <circle cx="8.87" cy="8.87" r="8.87"></circle>
    <circle cx="8.87" cy="62.12" r="8.87"></circle>
    <circle cx="8.87" cy="115.37" r="8.87"></circle>
    <circle cx="50.29" cy="8.87" r="8.87"></circle>
    <circle cx="50.29" cy="62.12" r="8.87"></circle>
    <circle cx="50.29" cy="115.37" r="8.87"></circle>
  </symbol>
  <symbol xmlns="http://www.w3.org/2000/svg" viewBox="0 0 184 242.45" id="file">
    <path d="M184 54.45a7.17 7.17 0 00-2.06-5L135 2.08A7 7 0 00130 0v.45H26a26 26 0 00-26 26v190a26 26 0 0026 26h132a26 26 0 0026-26v-162zm-47-30.08l23.08 23.08H137zm21.17 204.08H25.83A11.83 11.83 0 0114 216.63V26.28a11.83 11.83 0 0111.83-11.83H123v39.91a7.09 7.09 0 007.1 7.09H170v155.18a11.83 11.83 0 01-11.83 11.82z" ></path>
    <path d="M128 112.45H60v-13h68zm-15 38H60v-13h53z"></path>
  </symbol>
  <symbol xmlns="http://www.w3.org/2000/svg" viewBox="0 0 134.05 134.02" id="gears">
    <path d="M134 80.74V54.15l-17.27-1.9a51.94 51.94 0 00-3.71-9.17l11-13.75-18.8-18.81L91.76 21.4a51.4 51.4 0 00-9.11-3.87L80.74 0h-26.6l-1.89 17.27a51.77 51.77 0 00-9.09 3.67L29.42 9.88 10.59 28.65l10.86 13.57a51.34 51.34 0 00-3.88 9.1L0 53.21v26.6l17.27 1.91A51.9 51.9 0 0021 90.89L9.91 104.63l18.79 18.83 13.56-10.87a51.34 51.34 0 009.1 3.88l1.9 17.53h26.6l1.9-17.27a51 51 0 009.18-3.7l13.74 11 18.82-18.79-10.87-13.49a51.3 51.3 0 003.87-9.1zm-66.89 10a24 24 0 1124-24 24 24 0 01-23.96 23.97z" ></path>
  </symbol>
  <symbol xmlns="http://www.w3.org/2000/svg" viewBox="0 0 146 146" id="grid">
    <path d="M66 66H0V0h66zM15 51h36V15H15zm131 15H80V0h66zM95 51h36V15H95zm51 95H80V80h66zm-51-15h36V95H95zm-29 15H0V80h66zm-51-15h36V95H15z"></path>
  </symbol>
  <symbol xmlns="http://www.w3.org/2000/svg" viewBox="0 0 108.57 117.05" id="link">
    <path d="M35.11 117.05a35.11 35.11 0 01-25-10.5 37.08 37.08 0 010-50.85L57.72 7.27A26.88 26.88 0 0175.48 0a26.92 26.92 0 0117.76 7.27A24.36 24.36 0 01100.5 25a24.36 24.36 0 01-7.26 17.76L45.61 91.22a14.49 14.49 0 01-10.09 4.44 13.13 13.13 0 01-10.09-4.44 14.29 14.29 0 01-4-10.5 16.14 16.14 0 014-10.49L69 26.24a4 4 0 115.65 5.65l-44 44.8a6.83 6.83 0 000 9.68 6.32 6.32 0 008.88 0l47.65-48.43A17.09 17.09 0 0092 25.83a17.09 17.09 0 00-4.84-12.11c-2.82-4-7.26-5.65-11.7-5.65a16.18 16.18 0 00-11.71 4.85L16.14 61.75a28.28 28.28 0 000 39.56 27 27 0 0019 8.07 26.27 26.27 0 0019-8.07l47.63-48.44a4 4 0 015.65 5.65L59.74 107a34.13 34.13 0 01-24.63 10.05z" ></path>
  </symbol>
  <symbol xmlns="http://www.w3.org/2000/svg" viewBox="0 0 91.84 104.45" id="logo">
    <path d="M8.13 26.71l34.53-20 .24.43-34.52 20zM42.27 5.07L7.42 25.25l-.25-.44L42 4.64zM24.83 35.55L44 7.86l.41.28-19.18 27.69z"></path>
    <path d="M42 7.66L23 35.17l-.41-.29 19-27.5zM23.5 36.17l18.33-10.69.25.43L23.75 36.6zm.4 2.21l19.36-11.1.25.44-19.36 11.09zM21.71 37L6.54 28.3l.25-.43L22 36.57zM5.27 29.53L20.1 38l-.25.43L5 30zm39.59-1.08v9h-6.59l-3.45 7.17-10.15-5.81.24-.43L34.63 44 38 38.45h5.88v-10zm2 1h1v9h-1zm6.4 8.91l.42-.25 3.4 5.66 9.14-5.26.25.44-9.57 5.49zm13.96 2.26l.26.43-8.93 5.22 3.28 5.59-3.34 5.84 9.12 5.3-.25.44-9.55-5.55 3.44-6-3.38-5.77zM56.63 59.35L66.41 65l-.25.43L56.81 60l-3.26 4.42h-6.69v1h6.41zm-9.77 16.1v-10h1v10zm-8.65-11L35 59.53l-.43.25 3.35 5.67h5.94v10h1v-11z"></path>
    <path d="M35.17 59.72l-8.93 5.15-.24-.43 8.93-5.15zM24.39 40.49L34 46.12 30.56 52l3.5 5.87-9.51 5.57-.25-.44 9.07-5.33L30 52l3.31-5.65-9.15-5.38zM48.9 6.34l34.56 19.9-.25.44L48.65 6.77zm35.81 18.74L49.81 5l.25-.43L85 24.65zm-35.12.12L83.16 28v.5l-33.61-2.8z"></path>
    <path d="M82.33 26.14L49 23.41v-.5l33.34 2.73zm-33.39-1.09l18.41 10.54-.24.44-18.42-10.54zm-1.89 1.42l19.27 11.22-.25.43L46.8 26.9zm-.19-3.02v-17h1v17zm-3-18v17h1v-17zm25 60v-23h1v23zm2-1v-23 23zm.63-21.79L85.76 72.8l-.45.21L71 42.87zm.8-3.33l14.47 30.55-.45.21-14.47-30.55zm14.57-10.88v44-44zm1 46v-45h1v45zm-14.62-8.23l11.93 6.92-.25.43L73 66.65zm11.48 9.66l-12.78-7.35.25-.43L85 75.44zm.28.45L47.65 98l-.25-.43L84.78 75.9zm-37.53 23.78l38.71-22.29.25.44-38.71 22.28zm18.46-29.59L47.37 97.41l-.37-.29 18.52-26.89z"></path>
    <path d="M50.37 95.89l18.73-27 .41.28-18.73 27zM47 78.37l20.2-11.66.25.43L47.2 78.8zm1.24 1.79l20.18-11.69.24.44-20.17 11.68zM5.69 75L44.2 97.41l-.25.43L5.44 75.47zm38.92 25.9L5 77.92l.25-.43 39.62 23z"></path>
    <path d="M10.24 77.7l33 2.55v.49l-33-2.54zm11.2-10.63l21.5 12.35-.25.43-21.5-12.34zm2.18-1.19l20.52 11.69-.25.43-20.52-11.68z"></path>
    <path d="M40.07 78.32l-33-2.55v-.49l33 2.54z"></path>
    <path d="M7.31 75.33l12.75-7.46.25.43-12.75 7.46zm-1.8-1.62l13.81-8 .25.44-13.81 8zm38.35 24.74v-17h1v17zm3 0v-16h1v16zm-41-25v-43 43zm-3-43v43-43zM6 28.94l15.19 31.8-.45.21L5.55 29.16zm-.27 4.58l14.41 30.55-.45.21L5.28 33.73z"></path>
    <path d="M20.86 41.45v22h1v-22zm2 23v-23 23zM71.3 38.29L85.52 30l.25.43-14.21 8.3zm15.13-10.71L70.89 36.7l-.25-.43 15.54-9.12zM46 8.5a4.13 4.13 0 10-4.13-4.13A4.12 4.12 0 0046 8.5z"></path>
    <path d="M46 .5a3.88 3.88 0 103.87 3.87A3.88 3.88 0 0046 .5zm-4.39 3.87A4.38 4.38 0 1146 8.75a4.38 4.38 0 01-4.39-4.38zm45.85 27.48a4.13 4.13 0 10-4.12-4.13 4.13 4.13 0 004.12 4.13z"></path>
    <path d="M87.46 23.85a3.88 3.88 0 103.88 3.87 3.87 3.87 0 00-3.88-3.87zm-4.37 3.87a4.38 4.38 0 114.37 4.38 4.37 4.37 0 01-4.37-4.38zM70.27 42.73a4.13 4.13 0 10-4.12-4.12 4.12 4.12 0 004.12 4.12z"></path>
    <path d="M70.27 34.73a3.88 3.88 0 103.88 3.88 3.88 3.88 0 00-3.88-3.88zm-4.37 3.88A4.38 4.38 0 1170.27 43a4.37 4.37 0 01-4.37-4.39zM46 29.19a4.13 4.13 0 10-4.12-4.13A4.13 4.13 0 0046 29.19z"></path>
    <path d="M46 21.18a3.88 3.88 0 103.88 3.88A3.88 3.88 0 0046 21.18zm-4.37 3.88A4.38 4.38 0 1146 29.43a4.37 4.37 0 01-4.34-4.37zM22.34 42.73a4.13 4.13 0 10-4.13-4.12 4.12 4.12 0 004.13 4.12z"></path>
    <path d="M22.34 34.73a3.88 3.88 0 103.87 3.88 3.88 3.88 0 00-3.87-3.88zM18 38.61A4.38 4.38 0 1122.34 43 4.37 4.37 0 0118 38.61zm4.4 31.48A4.13 4.13 0 1018.27 66a4.13 4.13 0 004.13 4.09z"></path>
    <path d="M22.4 62.09A3.88 3.88 0 1026.27 66a3.88 3.88 0 00-3.87-3.91zM18 66a4.38 4.38 0 114.38 4.37A4.38 4.38 0 0118 66zM4.37 79.38a4.13 4.13 0 10-4.12-4.13 4.13 4.13 0 004.12 4.13z"></path>
    <path d="M4.37 71.38a3.88 3.88 0 103.88 3.87 3.87 3.87 0 00-3.88-3.87zM0 75.25a4.38 4.38 0 114.37 4.38A4.37 4.37 0 010 75.25zm46.06 8.25a4.13 4.13 0 10-4.12-4.12 4.12 4.12 0 004.12 4.12z"></path>
    <path d="M46.06 75.5a3.88 3.88 0 103.88 3.88 3.88 3.88 0 00-3.88-3.88zm-4.37 3.88a4.38 4.38 0 114.37 4.37 4.37 4.37 0 01-4.37-4.37zm4.18 24.83a4.13 4.13 0 10-4.13-4.13 4.12 4.12 0 004.13 4.13z"></path>
    <path d="M45.87 96.2a3.88 3.88 0 103.87 3.88 3.88 3.88 0 00-3.87-3.88zm-4.38 3.88a4.38 4.38 0 114.38 4.37 4.37 4.37 0 01-4.38-4.37zm28.74-29.99A4.13 4.13 0 1066.1 66a4.13 4.13 0 004.13 4.09z"></path>
    <path d="M70.23 62.09A3.88 3.88 0 1074.1 66a3.88 3.88 0 00-3.87-3.91zM65.85 66a4.38 4.38 0 114.38 4.37A4.38 4.38 0 0165.85 66zm21.58 13.45a4.13 4.13 0 10-4.12-4.12 4.12 4.12 0 004.12 4.12z"></path>
    <path d="M87.43 71.45a3.88 3.88 0 103.88 3.88 3.88 3.88 0 00-3.88-3.88zm-4.37 3.88a4.38 4.38 0 114.37 4.37 4.37 4.37 0 01-4.37-4.37zM4.43 32a4.13 4.13 0 10-4.12-4.14A4.13 4.13 0 004.43 32z"></path>
    <path d="M4.44 24a3.88 3.88 0 103.87 3.88A3.88 3.88 0 004.44 24zM.06 27.86a4.38 4.38 0 114.38 4.37 4.37 4.37 0 01-4.38-4.37zm43.5 23.53A4.55 4.55 0 0042.12 50a4.11 4.11 0 00-2.12-.49 3.42 3.42 0 00-2.44.87 3.28 3.28 0 00-.92 2.41 3.51 3.51 0 00.26 1.36 3 3 0 00.69 1 3 3 0 001.06.66 3.61 3.61 0 001.35.24 4.49 4.49 0 002.14-.47 4.32 4.32 0 001.43-1.4l2.33 1.31A5.65 5.65 0 0143.55 58a7.18 7.18 0 01-3.52.81 7.55 7.55 0 01-2.56-.42 6 6 0 01-2-1.18 5.33 5.33 0 01-1.34-1.88 6.13 6.13 0 01-.49-2.5 5.63 5.63 0 011.86-4.35 6.67 6.67 0 012-1.19 7.42 7.42 0 012.5-.46 6.18 6.18 0 015.88 3.22zm11.06-3.94a5.19 5.19 0 011.91.34 4.49 4.49 0 011.52.92 4.59 4.59 0 011 1.44 4.66 4.66 0 01.34 1.85 4.59 4.59 0 01-.39 1.85 4.36 4.36 0 01-1 1.41 4.59 4.59 0 01-1.52.89 5.8 5.8 0 01-1.91.3h-3.71v2h-3v-11zm-3.76 6H54a4.05 4.05 0 001.31-.57 1.51 1.51 0 00.51-1.26 1.71 1.71 0 00-.51-1.3.81.81 0 00-1.31.13h-3.14z"></path>
  </symbol>
  <symbol xmlns="http://www.w3.org/2000/svg" viewBox="0 0 64 65" id="logout">
    <path d="M41 57H8V8h33v4h8V0H0v65h49V52h-8v5z"></path>
    <path d="M49.17 17.17l-5.65 5.66L48.69 28H28v8h20.69l-5.17 5.17 5.65 5.66L64 32z"></path>
  </symbol>
  <symbol xmlns="http://www.w3.org/2000/svg" viewBox="0 0 97.94 143.63" id="mic">
    <path d="M72.82 143.63h-47v-9h47z"></path>
    <path d="M53.82 118.63v21h-9v-21z"></path>
    <path d="M8.9 73.63a40.07 40.07 0 0080.13 0h8.91a49 49 0 01-97.94 0z"></path>
    <rect x="19.82" width="59" height="103.25" rx="29.5" ></rect>
    <rect x="19.82" width="59" height="103.25" rx="29.5" ></rect>
  </symbol>
  <symbol xmlns="http://www.w3.org/2000/svg" viewBox="0 0 117.53 169.42" id="mic-o">
    <path d="M32.52 156.42h54v13h-54z"></path>
    <path d="M52.52 134.42h13v24h-13z"></path>
    <path d="M58.77 144.18A58.52 58.52 0 010 85.42h13.06a45.71 45.71 0 0091.41 0h13.06a58.51 58.51 0 01-58.76 58.76z"></path>
    <path d="M60.52 118.35a34.18 34.18 0 01-34-34V34a34 34 0 0168 0v50.35c-.66 18.3-15.7 34-34 34zM54.59 13.76a21.3 21.3 0 00-15.07 20.58v50.1a21 21 0 1042 0V33.91c-.77-13.86-13.28-24.1-26.93-20.15z"></path>
  </symbol>

  <symbol xmlns="http://www.w3.org/2000/svg" viewBox="0 0 119 87.56" id="people">
    <path d="M39.9 47a23.51 23.51 0 10-23.65-23.5A23.58 23.58 0 0039.9 47zm79.1 9.78v6.16a2.79 2.79 0 01-1.52 2.35c-3.25 1.44-12.13 4.39-30.28 4.39h-2.53a27.58 27.58 0 00-24-25.59 18.22 18.22 0 0110.83-5.25 1.53 1.53 0 01.91.25 25.26 25.26 0 0029.57 0 1.48 1.48 0 01.91-.25A18.16 18.16 0 01119 56.78zM80 71.34v7.75a3.52 3.52 0 01-1.91 3C74 83.86 62.83 87.56 40 87.56S6 83.86 1.91 82A3.48 3.48 0 010 79.1v-7.76a22.83 22.83 0 0120.27-22.56 1.9 1.9 0 011.13.31 31.74 31.74 0 0037.2 0 1.9 1.9 0 011.13-.31A22.83 22.83 0 0180 71.34zM87.2 0A18.71 18.71 0 10106 18.71 18.77 18.77 0 0087.2 0z" ></path>
  </symbol>
  <symbol xmlns="http://www.w3.org/2000/svg" viewBox="0 0 69.51 92.68" id="play">
    <path d="M69.51 46.34L0 92.68V0z" ></path>
  </symbol>

  <symbol xmlns="http://www.w3.org/2000/svg" viewBox="0 0 32 32" id="record">
    <path d="M16 32C11.7262 32 7.70831 30.3357 4.68625 27.3137C1.66431 24.2917 0 20.2738 0 16C0 11.7262 1.66431 7.70831 4.68625 4.68625C7.70831 1.66431 11.7262 0 16 0C20.2738 0 24.2917 1.66431 27.3137 4.68625C30.3357 7.70831 32 11.7262 32 16C32 20.2738 30.3357 24.2917 27.3137 27.3137C24.2917 30.3357 20.2738 32 16 32ZM16 1.875C8.21144 1.875 1.875 8.21144 1.875 16C1.875 23.7886 8.21144 30.125 16 30.125C23.7886 30.125 30.125 23.7886 30.125 16C30.125 8.21144 23.7886 1.875 16 1.875Z" fill="white"/>
    <path d="M16 23.1875C12.0368 23.1875 8.8125 19.9632 8.8125 16C8.8125 12.0368 12.0368 8.8125 16 8.8125C19.9632 8.8125 23.1875 12.0368 23.1875 16C23.1875 19.9632 19.9632 23.1875 16 23.1875Z" fill="#F86666"/>
  </symbol>

  <symbol xmlns="http://www.w3.org/2000/svg" viewBox="0 0 32 32" id="record-white">
    <path d="M16 32C11.7262 32 7.70831 30.3357 4.68625 27.3137C1.66431 24.2917 0 20.2738 0 16C0 11.7262 1.66431 7.70831 4.68625 4.68625C7.70831 1.66431 11.7262 0 16 0C20.2738 0 24.2917 1.66431 27.3137 4.68625C30.3357 7.70831 32 11.7262 32 16C32 20.2738 30.3357 24.2917 27.3137 27.3137C24.2917 30.3357 20.2738 32 16 32ZM16 1.875C8.21144 1.875 1.875 8.21144 1.875 16C1.875 23.7886 8.21144 30.125 16 30.125C23.7886 30.125 30.125 23.7886 30.125 16C30.125 8.21144 23.7886 1.875 16 1.875Z" fill="white"/>
    <path d="M16 23.1875C12.0368 23.1875 8.8125 19.9632 8.8125 16C8.8125 12.0368 12.0368 8.8125 16 8.8125C19.9632 8.8125 23.1875 12.0368 23.1875 16C23.1875 19.9632 19.9632 23.1875 16 23.1875ZM16 10.6875C13.0707 10.6875 10.6875 13.0707 10.6875 16C10.6875 18.9293 13.0707 21.3125 16 21.3125C18.9293 21.3125 21.3125 18.9293 21.3125 16C21.3125 13.0707 18.9293 10.6875 16 10.6875Z" fill="white"/>
  </symbol>

  <symbol xmlns="http://www.w3.org/2000/svg" viewBox="0 0 197 197" id="plus">
    <path d="M74 0h49v197H74z"></path>
    <path d="M0 74h197v49H0z"></path>
  </symbol>
  <symbol xmlns="http://www.w3.org/2000/svg" viewBox="0 0 118.18 118.18" id="redact">
    <path d="M11.82 81.54L0 118.18l36.64-11.82zm65.95-66.15L20.11 73.05l25.07 25.07 57.66-57.66zm38.64 2.93L99.86 1.77a5.72 5.72 0 00-8.27 0l-5.32 5.32 24.82 24.82 5.32-5.32a5.72 5.72 0 000-8.27z"></path>
  </symbol>
  <symbol xmlns="http://www.w3.org/2000/svg" viewBox="0 0 110.33 110.33" id="search">
    <path d="M48.59 0a48.59 48.59 0 1048.59 48.59A48.65 48.65 0 0048.59 0zm0 88.21a39.62 39.62 0 1139.62-39.62 39.67 39.67 0 01-39.62 39.62z"></path>
    <path d="M109 102.68L83.31 77A4.49 4.49 0 1077 83.3l25.68 25.7a4.49 4.49 0 006.34 0 4.48 4.48 0 00-.02-6.32z"></path>
  </symbol>
  <symbol xmlns="http://www.w3.org/2000/svg" viewBox="0 0 94 104" id="stop">
    <path d="M0 0h31v104H0zm63 0h31v104H63z"></path>
  </symbol>
  <symbol xmlns="http://www.w3.org/2000/svg" viewBox="0 0 210 260" id="stop-big">
    <path d="M0 0h22v260H0zm188 0h22v260h-22z"></path>
  </symbol>
  <symbol xmlns="http://www.w3.org/2000/svg" viewBox="0 0 108 144" id="time">
    <path d="M82.12 60.83A48.09 48.09 0 0099 24.44V18h9V0H0v18h9v6.44a48.11 48.11 0 0016.87 36.39L30.75 65A9.29 9.29 0 0134 71.12a8.92 8.92 0 01-3.09 7.7l-5.05 4.35A48.11 48.11 0 009 119.56V126H0v18h108v-18h-9v-6.44a48.11 48.11 0 00-16.87-36.39L77.25 79A9.29 9.29 0 0174 72.88a8.92 8.92 0 013.09-7.7zM74.06 126h-40.4l20.2-26.93z" ></path>
  </symbol>
  <symbol xmlns="http://www.w3.org/2000/svg" viewBox="0 0 167 94" id="video">
    <path d="M0 0h122v94H0zm131 30.47l36-20.66v72.31l-36-20.66z"></path>
  </symbol>
  <symbol xmlns="http://www.w3.org/2000/svg" viewBox="0 0 116.69 111.49" id="volume">
    <path d="M70 2.08L31.67 32.75H1v46h30.67L70 109.41z"></path>
    <path d="M71 111.49L31.32 79.75H0v-48h31.32L71 0zM2 77.75h30l37 29.58V4.16L32 33.75H2zm103 5.49l-1.1-1.66.55.83-.75-.66a37.37 37.37 0 000-52.9l1.42-1.42a39.42 39.42 0 010 55.68z"></path>
  </symbol>

  <symbol xmlns="http://www.w3.org/2000/svg" viewBox="0 0 24 18" id="users">
      <path d="M8.05478 9.47718C10.6876 9.47718 12.8219 7.35565 12.8219 4.73859C12.8219 2.12157 10.6876 0 8.05478 0C5.422 0 3.28765 2.12153 3.28765 4.73859C3.28765 7.35565 5.422 9.47718 8.05478 9.47718ZM24 11.4446V12.6878C24 12.8721 23.8635 13.0863 23.6942 13.1612C23.0378 13.4515 21.2475 14.0457 17.5891 14.0457C17.4138 14.0457 17.2467 14.0432 17.08 14.0405C16.9194 11.4069 14.9093 9.23796 12.2529 8.88073C12.8248 8.31122 13.5818 7.92516 14.4258 7.82919C14.4812 7.82291 14.5632 7.84645 14.6083 7.87889C15.4478 8.48305 16.4756 8.84362 17.5891 8.84362C18.7024 8.84362 19.7302 8.48305 20.5698 7.87889C20.6149 7.84642 20.6969 7.82287 20.7522 7.82919C22.573 8.03617 24 9.58169 24 11.4446ZM16.1096 14.3791V15.9411C16.1096 16.1726 15.9381 16.4417 15.7253 16.5358C14.9007 16.9005 12.6513 17.6471 8.05478 17.6471C3.45827 17.6471 1.2089 16.9005 0.384235 16.5358C0.17149 16.4417 0 16.1726 0 15.9411V14.3792C0 12.0385 1.79286 10.0967 4.08055 9.83662C4.15004 9.82871 4.25314 9.85833 4.3098 9.89915C5.36459 10.6581 6.65596 11.1112 8.05478 11.1112C9.45361 11.1112 10.745 10.6581 11.7998 9.89915C11.8565 9.85833 11.9596 9.82871 12.0291 9.83662C14.3167 10.0967 16.1096 12.0385 16.1096 14.3791ZM17.5891 3.89594e-05C15.4935 3.89594e-05 13.7948 1.68861 13.7948 3.77155C13.7948 5.85453 15.4935 7.54303 17.5891 7.54303C19.6845 7.54303 21.3833 5.85446 21.3833 3.77155C21.3833 1.68857 19.6845 3.89594e-05 17.5891 3.89594e-05Z"/>
  </symbol>

  <symbol xmlns="http://www.w3.org/2000/svg" viewBox="0 0 24 24" id="clock2">
    <path fill-rule="evenodd" clip-rule="evenodd" d="M12 24C15.1826 24 18.2348 22.7357 20.4853 20.4853C22.7357 18.2348 24 15.1826 24 12C24 8.8174 22.7357 5.76516 20.4853 3.51472C18.2348 1.26428 15.1826 0 12 0C8.8174 0 5.76516 1.26428 3.51472 3.51472C1.26428 5.76516 0 8.8174 0 12C0 15.1826 1.26428 18.2348 3.51472 20.4853C5.76516 22.7357 8.8174 24 12 24ZM13.5 6C13.5 5.60218 13.342 5.22064 13.0607 4.93934C12.7794 4.65804 12.3978 4.5 12 4.5C11.6022 4.5 11.2206 4.65804 10.9393 4.93934C10.658 5.22064 10.5 5.60218 10.5 6V12C10.5001 12.3978 10.6582 12.7793 10.9395 13.0605L15.1815 17.304C15.3209 17.4434 15.4863 17.5539 15.6684 17.6293C15.8505 17.7048 16.0457 17.7436 16.2428 17.7436C16.4398 17.7436 16.635 17.7048 16.8171 17.6293C16.9992 17.5539 17.1646 17.4434 17.304 17.304C17.4434 17.1646 17.5539 16.9992 17.6293 16.8171C17.7048 16.635 17.7436 16.4398 17.7436 16.2428C17.7436 16.0457 17.7048 15.8505 17.6293 15.6684C17.5539 15.4863 17.4434 15.3209 17.304 15.1815L13.5 11.379V6Z"/>
  </symbol>

  <symbol xmlns="http://www.w3.org/2000/svg" viewBox="0 0 19 26" id="setnum">
    <circle cx="2.71429" cy="2.71429" r="2.71429"/>
    <circle cx="2.71429" cy="9.49993" r="2.71429"/>
    <circle cx="2.71429" cy="16.2856" r="2.71429"/>
    <circle cx="9.5" cy="2.71429" r="2.71429"/>
    <circle cx="9.5" cy="9.49993" r="2.71429"/>
    <circle cx="9.5" cy="16.2856" r="2.71429"/>
    <circle cx="9.5" cy="23.0712" r="2.71429"/>
    <circle cx="16.2857" cy="2.71429" r="2.71429"/>
    <circle cx="16.2857" cy="9.49993" r="2.71429"/>
    <circle cx="16.2857" cy="16.2856" r="2.71429"/>
  </symbol>

  <symbol xmlns="http://www.w3.org/2000/svg" viewBox="0 0 29 29" id="reference">
    <path d="M29 14.5C29 18.3456 27.4723 22.0338 24.753 24.753C22.0338 27.4723 18.3456 29 14.5 29C10.6544 29 6.96623 27.4723 4.24695 24.753C1.52767 22.0338 0 18.3456 0 14.5C0 10.6544 1.52767 6.96623 4.24695 4.24695C6.96623 1.52767 10.6544 0 14.5 0C18.3456 0 22.0338 1.52767 24.753 4.24695C27.4723 6.96623 29 10.6544 29 14.5ZM9.9615 10.9348H11.4568C11.7069 10.9348 11.9063 10.73 11.9389 10.4817C12.1021 9.29269 12.9177 8.42631 14.3713 8.42631C15.6147 8.42631 16.7529 9.048 16.7529 10.5433C16.7529 11.6943 16.0751 12.2235 15.0039 13.0283C13.7841 13.9146 12.818 14.9495 12.8869 16.6297L12.8923 17.023C12.8942 17.1419 12.9428 17.2553 13.0276 17.3387C13.1123 17.4221 13.2265 17.4689 13.3454 17.4689H14.8154C14.9356 17.4689 15.0508 17.4211 15.1358 17.3362C15.2208 17.2512 15.2685 17.1359 15.2685 17.0157V16.8254C15.2685 15.5241 15.7633 15.1453 17.0991 14.1321C18.2029 13.2929 19.3539 12.3612 19.3539 10.4056C19.3539 7.66688 17.0411 6.34375 14.5091 6.34375C12.2126 6.34375 9.69688 7.41312 9.52469 10.4871C9.52221 10.5457 9.53172 10.6041 9.55266 10.6588C9.57359 10.7135 9.60549 10.7634 9.64641 10.8053C9.68732 10.8472 9.73638 10.8804 9.79057 10.9026C9.84475 10.9249 9.90292 10.9359 9.9615 10.9348ZM14.1756 22.6127C15.2812 22.6127 16.0406 21.8986 16.0406 20.9326C16.0406 19.9321 15.2794 19.2288 14.1756 19.2288C13.1171 19.2288 12.3467 19.9321 12.3467 20.9326C12.3467 21.8986 13.1171 22.6127 14.1774 22.6127H14.1756Z"/>
  </symbol>

  <symbol xmlns="http://www.w3.org/2000/svg" viewBox="0 0 24 24" id="record-min">
    <defs>
      <style>.path1{fill:#000000;}</style>
    </defs>
    <rect x="8.25" y="8.25" width="7.5" height="7.5" class="path1"/>
    <path d="m12 0c-6.6156 0-12 5.3844-12 12 0 6.6156 5.3844 12 12 12 6.6156 0 12-5.3844 12-12 0-6.6156-5.3844-12-12-12zm0 2c5.5347 0 10 4.4653 10 10 0 5.5347-4.4653 10-10 10-5.5347 0-10-4.4653-10-10 0-5.5347 4.4653-10 10-10z" class="path1"/>
  </symbol>

  <symbol xmlns="http://www.w3.org/2000/svg" viewBox="0 0 24 21" id="videoconf">
    <path d="M23.2968 16.5687H23.2469V2.5859C23.2469 1.16006 22.0868 0 20.6609 0H3.33904C1.9132 0 0.753139 1.16006 0.753139 2.5859V16.5687H0.703124C0.314812 16.5687 0 16.8835 0 17.2718C0 19.3206 1.66682 20.9874 3.71563 20.9874H20.2844C22.3332 20.9874 24 19.3206 24 17.2718C24 16.8835 23.6851 16.5687 23.2968 16.5687ZM2.15939 2.5859C2.15939 1.93547 2.68856 1.40625 3.33904 1.40625H20.6609C21.3113 1.40625 21.8406 1.93547 21.8406 2.5859V16.5687H17.6326V16.0395C17.6326 13.8439 16.3698 11.938 14.5324 11.0092C15.6614 10.2118 16.4002 8.8969 16.4002 7.41266C16.4002 4.98637 14.4263 3.01246 12 3.01246C9.57368 3.01246 7.59969 4.98637 7.59969 7.41266C7.59969 8.8969 8.33848 10.2117 9.46751 11.0092C7.63016 11.9379 6.3673 13.8439 6.3673 16.0395V16.5687H2.15934V2.5859H2.15939ZM9.00598 7.41266C9.00598 5.76177 10.3491 4.41871 12.0001 4.41871C13.651 4.41871 14.994 5.76177 14.994 7.41266C14.994 9.06359 13.651 10.4067 12.0001 10.4067C10.3491 10.4067 9.00598 9.06364 9.00598 7.41266ZM16.2264 16.5687H7.77359V16.0395C7.77359 13.709 9.66959 11.813 12.0001 11.813C14.3305 11.813 16.2264 13.709 16.2264 16.0395V16.5687ZM20.2844 19.5812H3.71563C2.68729 19.5812 1.81382 18.9055 1.5157 17.9749H7.07047H16.9295H22.4843C22.1862 18.9056 21.3127 19.5812 20.2844 19.5812Z"/>
  </symbol>

  <symbol xmlns="http://www.w3.org/2000/svg" viewBox="0 0 19 19" id="callout">
    <path d="M14.4929 3.03242L9.80537 7.71992L11.2783 9.19284L15.9658 4.50534L18.8752 7.41471V0.123047H11.5835L14.4929 3.03242Z" fill="#54B25D"/>
    <path d="M14.1064 11.0044C13.9062 10.8225 13.6432 10.7255 13.3728 10.7338C13.1025 10.7422 12.846 10.8553 12.6574 11.0492L10.1647 13.6128C9.56471 13.4982 8.35846 13.1221 7.11679 11.8836C5.87513 10.6409 5.49908 9.43152 5.38763 8.83568L7.94908 6.34193C8.14326 6.15352 8.25652 5.89695 8.26488 5.62652C8.27324 5.35609 8.17605 5.09302 7.99388 4.89297L4.14492 0.660682C3.96267 0.460012 3.70937 0.33829 3.43883 0.321369C3.16828 0.304448 2.90179 0.393659 2.69596 0.570057L0.436584 2.5086C0.256016 2.6887 0.148105 2.92899 0.133459 3.1836C0.117834 3.44402 -0.180082 9.61277 4.60325 14.3982C8.77617 18.5711 14.0033 18.8763 15.4428 18.8763C15.6533 18.8763 15.7824 18.8701 15.8168 18.868C16.0715 18.8537 16.3119 18.7457 16.4918 18.5648L18.4293 16.3034C18.6058 16.0977 18.6952 15.8313 18.6785 15.5607C18.6618 15.2902 18.5402 15.0368 18.3397 14.8544L14.1064 11.0044Z" fill="#C4C4C4"/>
  </symbol>

  <symbol xmlns="http://www.w3.org/2000/svg" viewBox="0 0 21 20" id="callin">
    <path d="M14.083 4.6875L11.1736 1.77813V9.06979H18.4653L15.5559 6.16042L20.2434 1.47292L18.7705 0L14.083 4.6875Z" fill="#718DD6"/>
    <path d="M14.7382 11.6148C14.538 11.4329 14.275 11.3358 14.0046 11.3442C13.7343 11.3525 13.4777 11.4656 13.2892 11.6596L10.7975 14.2231C10.1975 14.1085 8.99128 13.7325 7.74961 12.4939C6.50794 11.2512 6.1319 10.0419 6.02044 9.44603L8.5819 6.95228C8.77608 6.76387 8.88933 6.50731 8.89769 6.23687C8.90605 5.96644 8.80886 5.70337 8.62669 5.50332L4.77773 1.27103C4.59549 1.07036 4.34219 0.948642 4.07164 0.931721C3.8011 0.914799 3.53461 1.00401 3.32878 1.18041L1.06836 3.11895C0.887966 3.29959 0.78011 3.54013 0.765234 3.79499C0.749609 4.05541 0.451693 10.2242 5.23503 15.0096C9.40794 19.1814 14.6361 19.4867 16.0746 19.4867C16.2861 19.4867 16.4142 19.4804 16.4486 19.4783C16.7033 19.4643 16.9438 19.3563 17.1236 19.1752L19.0621 16.9137C19.2384 16.7079 19.3276 16.4416 19.3109 16.1711C19.2942 15.9006 19.1728 15.6473 18.9725 15.4648L14.7382 11.6148Z" fill="#C4C4C4"/>
  </symbol>

  <symbol xmlns="http://www.w3.org/2000/svg" viewBox="0 0 13 13" id="close-strong">
    <path d="M6.89949 4.5201L2.9397 0.560303L0.959798 2.5402L4.9196 6.5L0.959798 10.4598L2.9397 12.4397L6.89949 8.4799L10.8593 12.4397L12.8392 10.4598L8.87939 6.5L12.8392 2.5402L10.8593 0.560303L6.89949 4.5201Z"/>
  </symbol>

  <symbol viewBox="0 0 16 14" id="calelndar-2" xmlns="http://www.w3.org/2000/svg">
    <path d="M5.21148 9.62601H2.58936V11.4319H5.21148V9.62601Z"/>
    <path d="M5.21148 6.31244H2.58936V8.11835H5.21148V6.31244Z"/>
    <path d="M13.0777 9.62601H10.4556V11.4319H13.0777V9.62601Z"/>
    <path d="M13.0777 6.31244H10.4556V8.11835H13.0777V6.31244Z"/>
    <path d="M9.13628 9.62601H6.51416V11.4319H9.13628V9.62601Z"/>
    <path d="M9.13628 6.31244H6.51416V8.11835H9.13628V6.31244Z"/>
    <path d="M12.3685 1.04376V2.66743H10.2741V1.04376H5.39267V2.66743H3.29827V1.04376H0V14H15.6668V1.04376H12.3685ZM14.7597 13.0887H0.907024V4.6556H14.7597V13.0887Z"/>
    <path d="M4.79911 0H3.89209V2.05444H4.79911V0Z"/>
    <path d="M11.7747 0H10.8677V2.05444H11.7747V0Z"/>
  </symbol>

  <symbol xmlns="http://www.w3.org/2000/svg" viewBox="0 0 27 18.13" id="camera">
    <defs>
      <style>.cls-1{fill:#555867;}</style>
    </defs>
    <g id="Layer_2" data-name="Layer 2">
      <path class="cls-1" d="M19.65,18.13H0V0H19.65ZM2,16.13H17.65V2H2Z"/>
      <path class="cls-1" d="M27,15.9l-5.84-4v-6l5.84-4Zm-3.84-5.08L25,12.09V5.62L23.16,6.89Z"/>
    </g>
  </symbol>

  <symbol xmlns="http://www.w3.org/2000/svg" viewBox="0 0 18 22" id="trash">
    <defs>
      <style>.cls-1{fill:#787b8b;}</style>
    </defs>
    <g id="Layer_1-2" data-name="Layer 1">
      <path class="cls-1" d="M18,4H14V3a3,3,0,0,0-3-3H7A3,3,0,0,0,4,3V4H0V6H1V19a3,3,0,0,0,3,3H14a3,3,0,0,0,3-3V6h1ZM6,3a1.05,1.05,0,0,1,.29-.71A1.05,1.05,0,0,1,7,2h4a1.05,1.05,0,0,1,.71.29A1.05,1.05,0,0,1,12,3V4H6Zm9,16a1,1,0,0,1-1,1H4a1,1,0,0,1-1-1V6H15Z"/>
    </g>
  </symbol>

  <symbol xmlns="http://www.w3.org/2000/svg" viewBox="0 0 17.41 12.12" id="check-o">
    <defs>
      <style>.cls-1{fill:#718dd6;}</style>
    </defs>
    <g id="Layer_2" data-name="Layer 2">
      <g id="Layer_1-2" data-name="Layer 1">
        <polygon class="cls-1" points="6.71 12.12 0 5.41 1.41 4 6.71 9.29 16 0 17.41 1.41 6.71 12.12"/>
      </g>
    </g>
  </symbol>


  <symbol xmlns="http://www.w3.org/2000/svg" viewBox="0 0 359.232 359.232" id="restore">
    <path d="M191.751 12.136c-54.216 0-105.326 26.438-136.718 70.723-4.791 6.758-3.196 16.121 3.563 20.912 6.758 4.789 16.121 3.195 20.912-3.563 25.777-36.363 67.737-58.072 112.244-58.072 75.807 0 137.481 61.673 137.481 137.48s-61.674 137.48-137.481 137.48c-63.983 0-119.424-44.716-133.836-105.903l1.171 1.491c5.116 6.515 14.546 7.65 21.062 2.533 6.516-5.117 7.649-14.546 2.533-21.062L54.57 158.36c-3.902-4.968-9.834-7.653-15.859-7.185-6.028.469-11.469 4.04-14.556 9.551l-22.24 39.709c-4.048 7.228-1.47 16.369 5.758 20.417a14.916 14.916 0 007.316 1.915c5.235 0 10.317-2.747 13.073-7.626 7.548 34.871 26.163 66.613 53.256 90.391 30.539 26.803 69.758 41.564 110.434 41.564 92.349 0 167.481-75.131 167.481-167.48S284.1 12.136 191.751 12.136z"/>
    <path d="M287.319 176.616c0-52.77-42.931-95.701-95.701-95.701s-95.701 42.931-95.701 95.701 42.931 95.701 95.701 95.701 95.701-42.931 95.701-95.701zm-114.702-4.597v-48.403c0-8.284 6.716-15 15-15s15 6.716 15 15v38h35c8.284 0 15 6.716 15 15s-6.716 15-15 15H192.6c-11.205 0-19.983-8.608-19.983-19.597z"/>
  </symbol>

  <symbol xmlns="http://www.w3.org/2000/svg" viewBox="0 0 28 19" id="audio-track">
    <path d="M13.9994 4.15039V14.6504M18.2001 7.2998v4.2M22.4003 5.2002v8.4M26.6 10.4502v-2.1M9.80019 1v16.8M5.59999 6.25v6.3M1.3998 10.4502v-2.1" stroke-width="2" stroke-linecap="round"/>
  </symbol>

  <symbol xmlns="http://www.w3.org/2000/svg" viewBox="0 0 21 22" id="list">
    <path d="M10.4766 2.66702h9.5236M10.4766 11h9.5236M10.4766 11h9.5236M10.4766 19.333h9.5236" stroke-width="2" stroke-linecap="round"/>
    <path fill-rule="evenodd" clip-rule="evenodd" d="M3.33352 3.85747c.65747 0 1.19046-.53298 1.19046-1.19045s-.53299-1.19046-1.19046-1.19046c-.65747 0-1.19045.53299-1.19045 1.19046 0 .65747.53298 1.19045 1.19045 1.19045ZM3.33352 12.1905c.65747 0 1.19046-.533 1.19046-1.1905 0-.6574-.53299-1.19043-1.19046-1.19043-.65747 0-1.19045.53303-1.19045 1.19043 0 .6575.53298 1.1905 1.19045 1.1905ZM3.33352 20.5235c.65747 0 1.19046-.533 1.19046-1.1905 0-.6574-.53299-1.1904-1.19046-1.1904-.65747 0-1.19045.533-1.19045 1.1904 0 .6575.53298 1.1905 1.19045 1.1905Z"/>
  </symbol>

  <symbol xmlns="http://www.w3.org/2000/svg" viewBox="0 0 24 24" id="download2">
    <path d="M12 2a1 1 0 0 0-1 1v11.586l-3.293-3.293a1 1 0 0 0-1.4141 0 1 1 0 0 0 0 1.4141l5.707 5.707 5.707-5.707a1 1 0 0 0 0-1.4141 1 1 0 0 0-1.4141 0l-3.293 3.293V3a1 1 0 0 0-1-1zM4 20a1 1 0 0 0-1 1 1 1 0 0 0 1 1h16a1 1 0 0 0 1-1 1 1 0 0 0-1-1z"/>
  </symbol>


</svg>
