<svg xmlns="http://www.w3.org/2000/svg" viewBox="0 0 138.18 115.55"><defs><style>.cls-1{fill:#525367;fill-rule:evenodd;}</style></defs><g id="Layer_2" data-name="Layer 2"><g id="Layer_1-2" data-name="Layer 1"><path class="cls-1" d="M0,115V0H35V115ZM7.48,81.4a10,10,0,0,0,9.85,10.13,10.16,10.16,0,0,0,0-20.32A10,10,0,0,0,7.48,81.4Z"/><path class="cls-1" d="M40,115V0H75V115Zm7.79-33.6a9.88,9.88,0,1,0,9.84-10.19A10,10,0,0,0,47.79,81.4Z"/><path class="cls-1" d="M103.64,115.55,80.61,7.19,115.15.39l23,109.4ZM104.87,86a9.9,9.9,0,0,0,12.27,7.2,10.15,10.15,0,0,0,7.47-12,10,10,0,0,0-12-7.19A10.12,10.12,0,0,0,104.87,86Z"/></g></g></svg>