<svg xmlns="http://www.w3.org/2000/svg" viewBox="0 0 140 140"><defs><style>.cls-1{fill:#787b8b;}</style></defs><g id="Layer_2" data-name="Layer 2"><g id="Layer_1-2" data-name="Layer 1"><path class="cls-1" d="M140,114H44.86c-5.15,0-9.72-1.68-13.15-5.62A18.16,18.16,0,0,1,26,95.47L26.57,0H38l-.56,95.85c0,1.65.56,3.85,2.24,5a8.41,8.41,0,0,0,5,2.2H140Z"/><path class="cls-1" d="M114,140H102V45.25c0-1.68-.56-3.91-2.23-5a8.25,8.25,0,0,0-5-2.23L0,38.56V27l95.47-.56A16.3,16.3,0,0,1,108.38,32,18.2,18.2,0,0,1,114,44.9Z"/></g></g></svg>