<svg xmlns="http://www.w3.org/2000/svg" viewBox="0 0 210.75 210.75"><defs><style>.cls-1{fill:#fff;}</style></defs><g id="Layer_2" data-name="Layer 2"><g id="Layer_1-2" data-name="Layer 1"><path class="cls-1" d="M118.47,118.47a18.52,18.52,0,1,0-26.19,0A18.54,18.54,0,0,0,118.47,118.47ZM101,101a6.17,6.17,0,1,1,0,8.73A6.17,6.17,0,0,1,101,101Z"/><path class="cls-1" d="M105.37,0C47.35,0,0,47.36,0,105.37S47.36,210.75,105.37,210.75s105.38-47.36,105.38-105.38S163.39,0,105.37,0Zm93,105.37a92.48,92.48,0,0,1-10.27,42.46l-42.9-25.74A43.22,43.22,0,0,0,88.66,65.52L62.92,22.62A93,93,0,0,1,198.4,105.37ZM83.54,83.54a30.87,30.87,0,1,1,0,43.66A30.92,30.92,0,0,1,83.54,83.54ZM52.34,29,78.07,71.87c-1.12.91-2.21,1.9-3.26,2.94s-2,2.14-2.94,3.26L29,52.34A93.86,93.86,0,0,1,52.34,29Zm-40,76.38A92.43,92.43,0,0,1,22.62,62.92l42.9,25.74a43.22,43.22,0,0,0,56.57,56.57l25.74,42.9A93,93,0,0,1,12.35,105.37ZM158.4,181.76l-25.72-42.88a45.41,45.41,0,0,0,6.2-6.2l42.88,25.72A93.93,93.93,0,0,1,158.4,181.76Z"/></g></g></svg>