<svg xmlns="http://www.w3.org/2000/svg" viewBox="0 0 146 146"><defs><style>.cls-1{fill:#787b8b;}</style></defs><g id="Layer_2" data-name="Layer 2"><g id="Layer_1-2" data-name="Layer 1"><path class="cls-1" d="M124.1,146H21.9c-5.84,0-11.68-2.19-15.33-6.56A20.94,20.94,0,0,1,0,124.14V95H14v29.6a6.76,6.76,0,0,0,2.19,5.18A6.62,6.62,0,0,0,21.31,132H123.69a6.62,6.62,0,0,0,5.12-2.22A6.76,6.76,0,0,0,131,124.6V95h15v29.14c0,5.83-2.19,11.66-6.57,15.3S129.94,146,124.1,146Z"/><polygon class="cls-1" points="72.88 97.99 31.19 56.31 41.43 46.07 72.88 77.51 104.32 46.07 114.56 56.31 72.88 97.99"/><rect class="cls-1" x="65" width="15" height="88"/></g></g></svg>