<svg xmlns="http://www.w3.org/2000/svg" viewBox="0 0 184 242.45"><defs><style>.cls-1,.cls-2{fill:#fff;}.cls-2{fill-rule:evenodd;}</style></defs><g id="Layer_2" data-name="Layer 2"><g id="Layer_1-2" data-name="Layer 1"><path class="cls-1" d="M184,54.45a7.17,7.17,0,0,0-2.06-5L135,2.08A7,7,0,0,0,130,0V.45H26a26,26,0,0,0-26,26v190a26,26,0,0,0,26,26H158a26,26,0,0,0,26-26v-162ZM137,24.37l23.08,23.08H137Zm21.17,204.08H25.83A11.83,11.83,0,0,1,14,216.63V26.28A11.83,11.83,0,0,1,25.83,14.45H123V54.36a7.09,7.09,0,0,0,7.1,7.09H170V216.63A11.83,11.83,0,0,1,158.17,228.45Z"/><path class="cls-2" d="M128,112.45H60v-13h68Z"/><path class="cls-2" d="M113,150.45H60v-13h53Z"/></g></g></svg>