<svg xmlns="http://www.w3.org/2000/svg" viewBox="0 0 134.05 134.02"><defs><style>.cls-1{fill:#31313d;}</style></defs><g id="Layer_2" data-name="Layer 2"><g id="Layer_1-2" data-name="Layer 1"><path class="cls-1" d="M134,80.74V54.15l-17.27-1.9a51.94,51.94,0,0,0-3.71-9.17l11-13.75-18.8-18.81L91.76,21.4a51.4,51.4,0,0,0-9.11-3.87L80.74,0H54.14L52.25,17.27a51.77,51.77,0,0,0-9.09,3.67L29.42,9.88,10.59,28.65,21.45,42.22a51.34,51.34,0,0,0-3.88,9.1L0,53.21l0,26.6,17.27,1.91A51.9,51.9,0,0,0,21,90.89L9.91,104.63,28.7,123.46l13.56-10.87a51.34,51.34,0,0,0,9.1,3.88L53.26,134l26.6,0,1.9-17.27a51,51,0,0,0,9.18-3.7l13.74,11,18.82-18.79L112.63,91.75a51.3,51.3,0,0,0,3.87-9.1Zm-66.89,10a24,24,0,1,1,24-24A24,24,0,0,1,67.15,90.71Z"/></g></g></svg>