<svg xmlns="http://www.w3.org/2000/svg" viewBox="0 0 108.57 117.05"><defs><style>.cls-1{fill:#fff;}</style></defs><g id="Layer_2" data-name="Layer 2"><g id="Layer_1-2" data-name="Layer 1"><path class="cls-1" d="M35.11,117.05a35.11,35.11,0,0,1-25-10.5,37.08,37.08,0,0,1,0-50.85L57.72,7.27A26.88,26.88,0,0,1,75.48,0,26.92,26.92,0,0,1,93.24,7.27,24.36,24.36,0,0,1,100.5,25a24.36,24.36,0,0,1-7.26,17.76L45.61,91.22a14.49,14.49,0,0,1-10.09,4.44,13.13,13.13,0,0,1-10.09-4.44,14.29,14.29,0,0,1-4-10.5,16.14,16.14,0,0,1,4-10.49L69,26.24a4,4,0,1,1,5.65,5.65l-44,44.8a6.83,6.83,0,0,0,0,9.68,6.32,6.32,0,0,0,8.88,0L87.18,37.94A17.09,17.09,0,0,0,92,25.83a17.09,17.09,0,0,0-4.84-12.11c-2.82-4-7.26-5.65-11.7-5.65a16.18,16.18,0,0,0-11.71,4.85L16.14,61.75a28.28,28.28,0,0,0,0,39.56,27,27,0,0,0,19,8.07,26.27,26.27,0,0,0,19-8.07l47.63-48.44a4,4,0,0,1,5.65,5.65L59.74,107A34.13,34.13,0,0,1,35.11,117.05Z"/></g></g></svg>