<svg xmlns="http://www.w3.org/2000/svg" viewBox="0 0 91.84 104.45"><defs><style>.cls-1,.cls-2{fill:#e1e1e1;}.cls-1{fill-rule:evenodd;}</style></defs><g id="Layer_2" data-name="Layer 2"><g id="Layer_1-2" data-name="Layer 1"><path class="cls-1" d="M8.13,26.71l34.53-20,.24.43-34.52,20Z"/><path class="cls-1" d="M42.27,5.07,7.42,25.25l-.25-.44L42,4.64Z"/><path class="cls-1" d="M24.83,35.55,44,7.86l.41.28L25.23,35.83Z"/><path class="cls-1" d="M42,7.66,23,35.17l-.41-.29,19-27.5Z"/><path class="cls-1" d="M23.5,36.17,41.83,25.48l.25.43L23.75,36.6Z"/><path class="cls-1" d="M23.9,38.38l19.36-11.1.25.44L24.15,38.81Z"/><path class="cls-1" d="M21.71,37,6.54,28.3l.25-.43L22,36.57Z"/><path class="cls-1" d="M5.27,29.53,20.1,38l-.25.43L5,30Z"/><path class="cls-1" d="M44.86,28.45v9H38.27l-3.45,7.17L24.67,38.81l.24-.43L34.63,44,38,38.45h5.88v-10Z"/><path class="cls-1" d="M46.86,29.45h1v9h-1Z"/><path class="cls-1" d="M53.26,38.36l.42-.25,3.4,5.66,9.14-5.26.25.44L56.9,44.44Z"/><path class="cls-1" d="M67.22,40.62l.26.43-8.93,5.22,3.28,5.59L58.49,57.7,67.61,63l-.25.44-9.55-5.55,3.44-6-3.38-5.77Z"/><path class="cls-1" d="M56.63,59.35,66.41,65l-.25.43L56.81,60l-3.26,4.42H46.86v1h6.41Z"/><path class="cls-1" d="M46.86,75.45v-10h1v10Z"/><path class="cls-1" d="M38.21,64.45,35,59.53l-.43.25,3.35,5.67h5.94v10h1v-11Z"/><path class="cls-1" d="M35.17,59.72l-8.93,5.15L26,64.44l8.93-5.15Z"/><path class="cls-1" d="M24.39,40.49,34,46.12,30.56,52l3.5,5.87-9.51,5.57L24.3,63l9.07-5.33L30,52l3.31-5.65-9.15-5.38Z"/><path class="cls-1" d="M48.9,6.34l34.56,19.9-.25.44L48.65,6.77Z"/><path class="cls-1" d="M84.71,25.08,49.81,5l.25-.43L85,24.65Z"/><path class="cls-1" d="M49.59,25.2,83.16,28l0,.5L49.55,25.7Z"/><path class="cls-1" d="M82.33,26.14,49,23.41l0-.5,33.34,2.73Z"/><path class="cls-1" d="M48.94,25.05,67.35,35.59l-.24.44L48.69,25.49Z"/><path class="cls-1" d="M47.05,26.47,66.32,37.69l-.25.43L46.8,26.9Z"/><path class="cls-1" d="M46.86,23.45v-17h1v17Z"/><path class="cls-1" d="M43.86,5.45v17h1v-17Z"/><path class="cls-1" d="M68.86,65.45v-23h1v23Z"/><path class="cls-1" d="M70.86,64.45v-23h0v23Z"/><path class="cls-1" d="M71.49,42.66,85.76,72.8l-.45.21L71,42.87Z"/><path class="cls-1" d="M72.29,39.33,86.76,69.88l-.45.21L71.84,39.54Z"/><path class="cls-1" d="M86.86,28.45v44h0v-44Z"/><path class="cls-1" d="M87.86,74.45v-45h1v45Z"/><path class="cls-1" d="M73.24,66.22l11.93,6.92-.25.43L73,66.65Z"/><path class="cls-1" d="M84.72,75.88,71.94,68.53l.25-.43L85,75.44Z"/><path class="cls-1" d="M85,76.33,47.65,98l-.25-.43L84.78,75.9Z"/><path class="cls-1" d="M47.47,100.11,86.18,77.82l.25.44L47.72,100.54Z"/><path class="cls-1" d="M65.93,70.52,47.37,97.41,47,97.12,65.52,70.23Z"/><path class="cls-1" d="M50.37,95.89l18.73-27,.41.28-18.73,27Z"/><path class="cls-1" d="M47,78.37,67.2,66.71l.25.43L47.2,78.8Z"/><path class="cls-1" d="M48.24,80.16,68.42,68.47l.24.44L48.49,80.59Z"/><path class="cls-1" d="M5.69,75,44.2,97.41l-.25.43L5.44,75.47Z"/><path class="cls-1" d="M44.61,100.9,5,77.92l.25-.43,39.62,23Z"/><path class="cls-1" d="M10.24,77.7l33,2.55,0,.49-33-2.54Z"/><path class="cls-1" d="M21.44,67.07l21.5,12.35-.25.43L21.19,67.51Z"/><path class="cls-1" d="M23.62,65.88,44.14,77.57l-.25.43L23.37,66.32Z"/><path class="cls-1" d="M40.07,78.32l-33-2.55,0-.49,33,2.54Z"/><path class="cls-1" d="M7.31,75.33l12.75-7.46.25.43L7.56,75.76Z"/><path class="cls-1" d="M5.51,73.71l13.81-8,.25.44-13.81,8Z"/><path class="cls-1" d="M43.86,98.45v-17h1v17Z"/><path class="cls-1" d="M46.86,98.45v-16h1v16Z"/><path class="cls-1" d="M5.86,73.45v-43h0v43Z"/><path class="cls-1" d="M2.86,30.45v43h0v-43Z"/><path class="cls-1" d="M6,28.94l15.19,31.8-.45.21L5.55,29.16Z"/><path class="cls-1" d="M5.73,33.52,20.14,64.07l-.45.21L5.28,33.73Z"/><path class="cls-1" d="M20.86,41.45v22h1v-22Z"/><path class="cls-1" d="M22.86,64.45v-23h0v23Z"/><path class="cls-1" d="M71.3,38.29,85.52,30l.25.43-14.21,8.3Z"/><path class="cls-1" d="M86.43,27.58,70.89,36.7l-.25-.43,15.54-9.12Z"/><path class="cls-2" d="M46,8.5a4.13,4.13,0,1,0-4.13-4.13A4.12,4.12,0,0,0,46,8.5Z"/><path class="cls-1" d="M46,.5a3.88,3.88,0,1,0,3.87,3.87A3.88,3.88,0,0,0,46,.5ZM41.61,4.37A4.38,4.38,0,1,1,46,8.75,4.38,4.38,0,0,1,41.61,4.37Z"/><path class="cls-2" d="M87.46,31.85a4.13,4.13,0,1,0-4.12-4.13A4.13,4.13,0,0,0,87.46,31.85Z"/><path class="cls-1" d="M87.46,23.85a3.88,3.88,0,1,0,3.88,3.87A3.87,3.87,0,0,0,87.46,23.85Zm-4.37,3.87a4.38,4.38,0,1,1,4.37,4.38A4.37,4.37,0,0,1,83.09,27.72Z"/><path class="cls-2" d="M70.27,42.73a4.13,4.13,0,1,0-4.12-4.12A4.12,4.12,0,0,0,70.27,42.73Z"/><path class="cls-1" d="M70.27,34.73a3.88,3.88,0,1,0,3.88,3.88A3.88,3.88,0,0,0,70.27,34.73ZM65.9,38.61A4.38,4.38,0,1,1,70.27,43,4.37,4.37,0,0,1,65.9,38.61Z"/><path class="cls-2" d="M46,29.19a4.13,4.13,0,1,0-4.12-4.13A4.13,4.13,0,0,0,46,29.19Z"/><path class="cls-1" d="M46,21.18a3.88,3.88,0,1,0,3.88,3.88A3.88,3.88,0,0,0,46,21.18Zm-4.37,3.88A4.38,4.38,0,1,1,46,29.43,4.37,4.37,0,0,1,41.66,25.06Z"/><path class="cls-2" d="M22.34,42.73a4.13,4.13,0,1,0-4.13-4.12A4.12,4.12,0,0,0,22.34,42.73Z"/><path class="cls-1" d="M22.34,34.73a3.88,3.88,0,1,0,3.87,3.88A3.88,3.88,0,0,0,22.34,34.73ZM18,38.61A4.38,4.38,0,1,1,22.34,43,4.37,4.37,0,0,1,18,38.61Z"/><path class="cls-2" d="M22.4,70.09A4.13,4.13,0,1,0,18.27,66,4.13,4.13,0,0,0,22.4,70.09Z"/><path class="cls-1" d="M22.4,62.09A3.88,3.88,0,1,0,26.27,66,3.88,3.88,0,0,0,22.4,62.09ZM18,66a4.38,4.38,0,1,1,4.38,4.37A4.38,4.38,0,0,1,18,66Z"/><path class="cls-2" d="M4.37,79.38A4.13,4.13,0,1,0,.25,75.25,4.13,4.13,0,0,0,4.37,79.38Z"/><path class="cls-1" d="M4.37,71.38a3.88,3.88,0,1,0,3.88,3.87A3.87,3.87,0,0,0,4.37,71.38ZM0,75.25a4.38,4.38,0,1,1,4.37,4.38A4.37,4.37,0,0,1,0,75.25Z"/><path class="cls-2" d="M46.06,83.5a4.13,4.13,0,1,0-4.12-4.12A4.12,4.12,0,0,0,46.06,83.5Z"/><path class="cls-1" d="M46.06,75.5a3.88,3.88,0,1,0,3.88,3.88A3.88,3.88,0,0,0,46.06,75.5Zm-4.37,3.88a4.38,4.38,0,1,1,4.37,4.37A4.37,4.37,0,0,1,41.69,79.38Z"/><path class="cls-2" d="M45.87,104.21a4.13,4.13,0,1,0-4.13-4.13A4.12,4.12,0,0,0,45.87,104.21Z"/><path class="cls-1" d="M45.87,96.2a3.88,3.88,0,1,0,3.87,3.88A3.88,3.88,0,0,0,45.87,96.2Zm-4.38,3.88a4.38,4.38,0,1,1,4.38,4.37A4.37,4.37,0,0,1,41.49,100.08Z"/><path class="cls-2" d="M70.23,70.09A4.13,4.13,0,1,0,66.1,66,4.13,4.13,0,0,0,70.23,70.09Z"/><path class="cls-1" d="M70.23,62.09A3.88,3.88,0,1,0,74.1,66,3.88,3.88,0,0,0,70.23,62.09ZM65.85,66a4.38,4.38,0,1,1,4.38,4.37A4.38,4.38,0,0,1,65.85,66Z"/><path class="cls-2" d="M87.43,79.45a4.13,4.13,0,1,0-4.12-4.12A4.12,4.12,0,0,0,87.43,79.45Z"/><path class="cls-1" d="M87.43,71.45a3.88,3.88,0,1,0,3.88,3.88A3.88,3.88,0,0,0,87.43,71.45Zm-4.37,3.88a4.38,4.38,0,1,1,4.37,4.37A4.37,4.37,0,0,1,83.06,75.33Z"/><path class="cls-2" d="M4.43,32A4.13,4.13,0,1,0,.31,27.86,4.13,4.13,0,0,0,4.43,32Z"/><path class="cls-1" d="M4.44,24a3.88,3.88,0,1,0,3.87,3.88A3.88,3.88,0,0,0,4.44,24ZM.06,27.86a4.38,4.38,0,1,1,4.38,4.37A4.37,4.37,0,0,1,.06,27.86Z"/><path class="cls-2" d="M43.56,51.39A4.55,4.55,0,0,0,42.12,50,4.11,4.11,0,0,0,40,49.51a3.42,3.42,0,0,0-2.44.87,3.28,3.28,0,0,0-.92,2.41,3.51,3.51,0,0,0,.26,1.36,3,3,0,0,0,.69,1,3,3,0,0,0,1.06.66,3.61,3.61,0,0,0,1.35.24,4.49,4.49,0,0,0,2.14-.47,4.32,4.32,0,0,0,1.43-1.4l2.33,1.31A5.65,5.65,0,0,1,43.55,58a7.18,7.18,0,0,1-3.52.81,7.55,7.55,0,0,1-2.56-.42,6,6,0,0,1-2-1.18,5.33,5.33,0,0,1-1.34-1.88,6.13,6.13,0,0,1-.49-2.5,5.63,5.63,0,0,1,1.86-4.35,6.67,6.67,0,0,1,2-1.19A7.42,7.42,0,0,1,40,46.83a6.18,6.18,0,0,1,5.88,3.22Zm11.06-3.94a5.19,5.19,0,0,1,1.91.34,4.49,4.49,0,0,1,1.52.92,4.59,4.59,0,0,1,1,1.44A4.66,4.66,0,0,1,59.39,52,4.59,4.59,0,0,1,59,53.85a4.36,4.36,0,0,1-1,1.41,4.59,4.59,0,0,1-1.52.89,5.8,5.8,0,0,1-1.91.3H50.86v2h-3v-11Zm-3.76,6H54a4.05,4.05,0,0,0,1.31-.57,1.51,1.51,0,0,0,.51-1.26,1.71,1.71,0,0,0-.51-1.3.81.81,0,0,0-1.31.13H50.86Z"/></g></g></svg>