<svg xmlns="http://www.w3.org/2000/svg" viewBox="0 0 117.53 169.42"><defs><style>.cls-1{fill:#555867;}</style></defs><g id="Layer_2" data-name="Layer 2"><g id="Layer_1-2" data-name="Layer 1"><rect class="cls-1" x="32.52" y="156.42" width="54" height="13"/><rect class="cls-1" x="52.52" y="134.42" width="13" height="24"/><path class="cls-1" d="M58.77,144.18A58.52,58.52,0,0,1,0,85.42H13.06a45.71,45.71,0,0,0,91.41,0h13.06A58.51,58.51,0,0,1,58.77,144.18Z"/><path class="cls-1" d="M60.52,118.35a34.18,34.18,0,0,1-34-34V34a34,34,0,0,1,68,0V84.35C93.86,102.65,78.82,118.35,60.52,118.35ZM54.59,13.76A21.3,21.3,0,0,0,39.52,34.34v50.1a21,21,0,1,0,42,0V33.91C80.75,20.05,68.24,9.81,54.59,13.76Z"/></g></g></svg>