<svg xmlns="http://www.w3.org/2000/svg" viewBox="0 0 135.78 120"><defs><style>.cls-1{fill:#fff;}</style></defs><g id="Layer_2" data-name="Layer 2"><g id="Layer_1-2" data-name="Layer 1"><path class="cls-1" d="M133.6,95h-.34V14.87A14.87,14.87,0,0,0,118.39,0H19.13A14.87,14.87,0,0,0,4.26,14.87V95H2.18A2.09,2.09,0,0,0,.1,96.88,21,21,0,0,0,21,120h93.74a21,21,0,0,0,20.92-23.12A2.09,2.09,0,0,0,133.6,95ZM12.26,14.77A6.78,6.78,0,0,1,19,8h99.45a6.79,6.79,0,0,1,6.78,6.78V95h-24V92A32.42,32.42,0,0,0,83.37,63a25.39,25.39,0,1,0-29.22,0A32.42,32.42,0,0,0,36.26,92v3h-24V14.77Zm39.4,27.64A17.22,17.22,0,1,1,68.88,59.62,17.23,17.23,0,0,1,51.66,42.41ZM93.26,95h-49V92.43c0-11.32,9.06-22.53,20.23-24.42A24.48,24.48,0,0,1,93.26,92Zm23.26,17H21.23a13.29,13.29,0,0,1-12.65-9H129.17A13.29,13.29,0,0,1,116.52,112Z"/></g></g></svg>