<svg xmlns="http://www.w3.org/2000/svg" viewBox="0 0 119 87.56"><defs><style>.cls-1{fill:#31313d;}</style></defs><g id="Layer_2" data-name="Layer 2"><g id="Layer_1-2" data-name="Layer 1"><path class="cls-1" d="M39.9,47a23.51,23.51,0,1,0-23.65-23.5A23.58,23.58,0,0,0,39.9,47ZM119,56.78v6.16a2.79,2.79,0,0,1-1.52,2.35c-3.25,1.44-12.13,4.39-30.28,4.39-.87,0-1.7,0-2.53,0a27.58,27.58,0,0,0-24-25.59A18.22,18.22,0,0,1,71.5,38.84a1.53,1.53,0,0,1,.91.25,25.26,25.26,0,0,0,29.57,0,1.48,1.48,0,0,1,.91-.25A18.16,18.16,0,0,1,119,56.78ZM80,71.34v7.75a3.52,3.52,0,0,1-1.91,3C74,83.86,62.83,87.56,40,87.56S6,83.86,1.91,82A3.48,3.48,0,0,1,0,79.1V71.34A22.83,22.83,0,0,1,20.27,48.78a1.9,1.9,0,0,1,1.13.31,31.74,31.74,0,0,0,37.2,0,1.9,1.9,0,0,1,1.13-.31A22.83,22.83,0,0,1,80,71.34ZM87.2,0A18.71,18.71,0,1,0,106,18.71,18.77,18.77,0,0,0,87.2,0Z"/></g></g></svg>