<svg xmlns="http://www.w3.org/2000/svg" viewBox="0 0 108 144"><defs><style>.cls-1{fill:#c4c4c4;}</style></defs><g id="Layer_2" data-name="Layer 2"><g id="Layer_1-2" data-name="Layer 1"><path class="cls-1" d="M82.12,60.83A48.09,48.09,0,0,0,99,24.44V18h9V0H0V18H9v6.44A48.11,48.11,0,0,0,25.87,60.83L30.75,65A9.29,9.29,0,0,1,34,71.12a8.92,8.92,0,0,1-3.09,7.7l-5.05,4.35A48.11,48.11,0,0,0,9,119.56V126H0v18H108V126H99v-6.44A48.11,48.11,0,0,0,82.13,83.17L77.25,79A9.29,9.29,0,0,1,74,72.88a8.92,8.92,0,0,1,3.09-7.7ZM74.06,126H33.66l20.2-26.93Z"/></g></g></svg>